%FSLAX24Y24*%
%MOIN*%
G70*
G01*
G75*
G04 Layer_Color=16711935*
%ADD10O,0.0827X0.0236*%
%ADD11R,0.0394X0.0433*%
%ADD12R,0.0433X0.0394*%
%ADD13R,0.0400X0.0120*%
%ADD14O,0.0400X0.0120*%
%ADD15R,0.0256X0.0551*%
%ADD16O,0.0236X0.0866*%
%ADD17O,0.0728X0.0131*%
%ADD18R,0.0709X0.0630*%
%ADD19R,0.0459X0.0450*%
%ADD20O,0.0118X0.0610*%
%ADD21R,0.0787X0.2165*%
%ADD22R,0.0709X0.0185*%
%ADD23R,0.0433X0.0394*%
%ADD24R,0.0433X0.0315*%
%ADD25C,0.0100*%
%ADD26C,0.0070*%
%ADD27C,0.0200*%
%ADD28C,0.0250*%
%ADD29R,0.0600X0.0600*%
%ADD30C,0.0600*%
%ADD31R,0.0580X0.0580*%
%ADD32C,0.0580*%
%ADD33R,0.0580X0.0580*%
%ADD34C,0.0840*%
%ADD35R,0.0591X0.0591*%
%ADD36C,0.0591*%
%ADD37C,0.0250*%
%ADD38C,0.0705*%
%ADD39C,0.0400*%
%ADD40C,0.0540*%
G04:AMPARAMS|DCode=41|XSize=70mil|YSize=70mil|CornerRadius=0mil|HoleSize=0mil|Usage=FLASHONLY|Rotation=0.000|XOffset=0mil|YOffset=0mil|HoleType=Round|Shape=Relief|Width=8mil|Gap=10mil|Entries=4|*
%AMTHD41*
7,0,0,0.0700,0.0500,0.0080,45*
%
%ADD41THD41*%
G04:AMPARAMS|DCode=42|XSize=77mil|YSize=77mil|CornerRadius=0mil|HoleSize=0mil|Usage=FLASHONLY|Rotation=0.000|XOffset=0mil|YOffset=0mil|HoleType=Round|Shape=Relief|Width=8mil|Gap=10mil|Entries=4|*
%AMTHD42*
7,0,0,0.0770,0.0570,0.0080,45*
%
%ADD42THD42*%
%ADD43C,0.0610*%
G04:AMPARAMS|DCode=44|XSize=107mil|YSize=107mil|CornerRadius=0mil|HoleSize=0mil|Usage=FLASHONLY|Rotation=0.000|XOffset=0mil|YOffset=0mil|HoleType=Round|Shape=Relief|Width=8mil|Gap=10mil|Entries=4|*
%AMTHD44*
7,0,0,0.1070,0.0870,0.0080,45*
%
%ADD44THD44*%
%ADD45C,0.0910*%
%ADD46C,0.0594*%
%ADD47C,0.0320*%
G04:AMPARAMS|DCode=48|XSize=48mil|YSize=48mil|CornerRadius=0mil|HoleSize=0mil|Usage=FLASHONLY|Rotation=0.000|XOffset=0mil|YOffset=0mil|HoleType=Round|Shape=Relief|Width=8mil|Gap=10mil|Entries=4|*
%AMTHD48*
7,0,0,0.0480,0.0280,0.0080,45*
%
%ADD48THD48*%
%ADD49C,0.0775*%
%ADD50C,0.0080*%
%ADD51C,0.0098*%
%ADD52C,0.0236*%
%ADD53C,0.0079*%
%ADD54C,0.0002*%
%ADD55C,0.0020*%
%ADD56C,0.0018*%
%ADD57C,0.0060*%
%ADD58R,0.0660X0.0660*%
%ADD59C,0.0660*%
%ADD60C,0.0785*%
%ADD61C,0.0765*%
%ADD62C,0.0039*%
D25*
X12400Y26400D02*
X14200D01*
X12400Y46500D02*
X14200D01*
X12500Y26400D02*
Y34231D01*
Y38349D02*
Y46500D01*
Y26400D02*
X12700Y27000D01*
X12300D02*
X12500Y26400D01*
X12300Y45900D02*
X12500Y46500D01*
X12700Y45900D01*
X39500Y24900D02*
Y26250D01*
X14350Y24900D02*
Y26250D01*
X28824Y25000D02*
X39500D01*
X14350D02*
X24706D01*
X38900Y25200D02*
X39500Y25000D01*
X38900Y24800D02*
X39500Y25000D01*
X14350D02*
X14950Y24800D01*
X14350Y25000D02*
X14950Y25200D01*
X14350Y26400D02*
Y46500D01*
X39500D01*
Y26400D02*
Y46500D01*
X14350Y26400D02*
X39500D01*
D57*
X12860Y34790D02*
Y34391D01*
X12460Y34790D01*
X12360D01*
X12260Y34691D01*
Y34491D01*
X12360Y34391D01*
Y34990D02*
X12260Y35090D01*
Y35290D01*
X12360Y35390D01*
X12760D01*
X12860Y35290D01*
Y35090D01*
X12760Y34990D01*
X12360D01*
X12860Y35590D02*
Y35790D01*
Y35690D01*
X12260D01*
X12360Y35590D01*
Y36090D02*
X12260Y36190D01*
Y36390D01*
X12360Y36490D01*
X12760D01*
X12860Y36390D01*
Y36190D01*
X12760Y36090D01*
X12360D01*
X12860Y36690D02*
X12760D01*
Y36790D01*
X12860D01*
Y36690D01*
X12360Y37190D02*
X12260Y37290D01*
Y37490D01*
X12360Y37590D01*
X12760D01*
X12860Y37490D01*
Y37290D01*
X12760Y37190D01*
X12360D01*
Y37790D02*
X12260Y37889D01*
Y38089D01*
X12360Y38189D01*
X12760D01*
X12860Y38089D01*
Y37889D01*
X12760Y37790D01*
X12360D01*
X25265Y24640D02*
X24866D01*
X25265Y25040D01*
Y25140D01*
X25166Y25240D01*
X24966D01*
X24866Y25140D01*
X25865Y25240D02*
X25465D01*
Y24940D01*
X25665Y25040D01*
X25765D01*
X25865Y24940D01*
Y24740D01*
X25765Y24640D01*
X25565D01*
X25465Y24740D01*
X26065Y24640D02*
X26265D01*
X26165D01*
Y25240D01*
X26065Y25140D01*
X26965Y25240D02*
X26565D01*
Y24940D01*
X26765Y25040D01*
X26865D01*
X26965Y24940D01*
Y24740D01*
X26865Y24640D01*
X26665D01*
X26565Y24740D01*
X27165Y24640D02*
Y24740D01*
X27265D01*
Y24640D01*
X27165D01*
X27665Y25140D02*
X27765Y25240D01*
X27965D01*
X28065Y25140D01*
Y24740D01*
X27965Y24640D01*
X27765D01*
X27665Y24740D01*
Y25140D01*
X28265D02*
X28364Y25240D01*
X28564D01*
X28664Y25140D01*
Y24740D01*
X28564Y24640D01*
X28364D01*
X28265Y24740D01*
Y25140D01*
D62*
X19161Y27836D02*
G03*
X19161Y27836I-197J0D01*
G01*
X33173Y33026D02*
G03*
X33173Y33026I-197J0D01*
G01*
X27202Y27987D02*
G03*
X27202Y27987I-197J0D01*
G01*
X23553Y39991D02*
G03*
X23553Y39991I-197J0D01*
G01*
X27202Y31387D02*
G03*
X27202Y31387I-197J0D01*
G01*
X24135Y28276D02*
X25065D01*
X24135Y27724D02*
X25065D01*
Y28276D01*
X24135Y27724D02*
Y28276D01*
X18590Y26990D02*
X19810D01*
X18590Y28210D02*
X19810D01*
Y26990D02*
Y28210D01*
X18590Y26990D02*
Y28210D01*
X32150Y32200D02*
Y33400D01*
X33350Y32200D02*
Y33400D01*
X32150Y32200D02*
X33350D01*
X32150Y33400D02*
X33350D01*
X30568Y27613D02*
Y29187D01*
X26632Y27613D02*
Y29187D01*
X30568D01*
X26632Y27613D02*
X30568D01*
X22982Y38435D02*
X24518D01*
X22982Y40365D02*
X24518D01*
Y38435D02*
Y40365D01*
X22982Y38435D02*
Y40365D01*
X26632Y31013D02*
X30568D01*
X26632Y32587D02*
X30568D01*
X26632Y31013D02*
Y32587D01*
X30568Y31013D02*
Y32587D01*
M02*
