%FSLAX24Y24*%
%MOIN*%
G70*
G01*
G75*
G04 Layer_Physical_Order=1*
G04 Layer_Color=255*
%ADD10O,0.0827X0.0236*%
%ADD11R,0.0394X0.0433*%
%ADD12R,0.0433X0.0394*%
%ADD13R,0.0400X0.0120*%
%ADD14O,0.0400X0.0120*%
%ADD15R,0.0256X0.0551*%
%ADD16O,0.0236X0.0866*%
%ADD17O,0.0728X0.0131*%
%ADD18R,0.0709X0.0630*%
%ADD19R,0.0459X0.0450*%
%ADD20O,0.0118X0.0610*%
%ADD21R,0.0787X0.2165*%
%ADD22R,0.0709X0.0185*%
%ADD23R,0.0433X0.0394*%
%ADD24R,0.0433X0.0315*%
%ADD25C,0.0100*%
%ADD26C,0.0070*%
%ADD27C,0.0200*%
%ADD28C,0.0250*%
%ADD29R,0.0600X0.0600*%
%ADD30C,0.0600*%
%ADD31R,0.0580X0.0580*%
%ADD32C,0.0580*%
%ADD33R,0.0580X0.0580*%
%ADD34C,0.0840*%
%ADD35R,0.0591X0.0591*%
%ADD36C,0.0591*%
%ADD37C,0.0250*%
%ADD38C,0.0705*%
G36*
X19847Y30113D02*
X19687Y29953D01*
X19444D01*
X19413Y29992D01*
X19413Y29994D01*
X19401Y30056D01*
X19377Y30092D01*
X19401Y30129D01*
X19405Y30151D01*
X19281D01*
X19250Y30157D01*
X19110D01*
Y30225D01*
X19250D01*
X19281Y30231D01*
X19405D01*
X19401Y30253D01*
X19377Y30289D01*
X19401Y30326D01*
X19413Y30388D01*
X19401Y30450D01*
X19365Y30503D01*
X19350Y30514D01*
Y30703D01*
X19847D01*
Y30113D01*
D02*
G37*
G36*
X22100Y30204D02*
X21500D01*
X21422Y30188D01*
X21394Y30170D01*
X21350Y30193D01*
Y30600D01*
X22100D01*
Y30204D01*
D02*
G37*
G36*
X20350Y28189D02*
X20311Y28157D01*
X20286Y28162D01*
X20027D01*
Y27994D01*
X19987D01*
Y27966D01*
X19689D01*
X19629Y27954D01*
X19528D01*
X19521Y27989D01*
X19489Y27950D01*
X19100D01*
Y28293D01*
X19371D01*
Y28550D01*
X19055D01*
Y28590D01*
X19015D01*
Y28887D01*
X18738D01*
D01*
D01*
X18738Y28887D01*
X18702D01*
Y28887D01*
X18069D01*
Y28700D01*
X18069Y28700D01*
X17563D01*
X17551Y28695D01*
X17538D01*
X17525Y28690D01*
X17516Y28681D01*
X17504Y28676D01*
X17502Y28671D01*
X17251D01*
Y28697D01*
X16900D01*
Y29650D01*
X17046D01*
Y29289D01*
X17954D01*
Y29650D01*
X18103D01*
X18103Y29618D01*
X18103D01*
X18103Y29582D01*
X18103D01*
Y29305D01*
X18697D01*
Y29582D01*
D01*
Y29582D01*
X18697Y29582D01*
Y29618D01*
D01*
X18697Y29650D01*
X18777D01*
X18809Y29611D01*
X18815Y29640D01*
X18939D01*
X18970Y29634D01*
X19250D01*
X19281Y29640D01*
X19405D01*
X19411Y29608D01*
X19443Y29647D01*
X19750D01*
X19765Y29650D01*
X20350D01*
Y28189D01*
D02*
G37*
G36*
X17970Y30847D02*
X18549D01*
Y30703D01*
X18800D01*
Y29753D01*
X18697D01*
Y29895D01*
X18103D01*
Y29753D01*
X18000D01*
X17985Y29750D01*
X16897D01*
Y29895D01*
X16600D01*
Y29935D01*
X16560D01*
Y30251D01*
X16303D01*
X16303Y30251D01*
X16297D01*
Y30251D01*
X16040D01*
Y29935D01*
X16000D01*
Y29895D01*
X15703D01*
Y29897D01*
X15701D01*
Y29897D01*
X15650D01*
Y30850D01*
X17955D01*
X17970Y30847D01*
D02*
G37*
G36*
X28900Y31609D02*
Y31422D01*
X28861Y31390D01*
X28890Y31385D01*
Y30855D01*
Y30326D01*
X28850Y30318D01*
X28849Y30318D01*
X28851Y30311D01*
X28860Y30266D01*
X28594Y30000D01*
X28262D01*
X28242Y30046D01*
X28458Y30262D01*
X28459Y30264D01*
X28461Y30265D01*
X28473Y30284D01*
X28491Y30311D01*
X28492Y30313D01*
X28493Y30315D01*
X28497Y30341D01*
X28503Y30370D01*
X28503Y30370D01*
X28503Y30370D01*
X28503Y30372D01*
X28503Y30374D01*
X28503Y30380D01*
X28507Y30383D01*
X28555Y30455D01*
X28572Y30540D01*
Y31170D01*
X28555Y31255D01*
X28507Y31327D01*
X28435Y31376D01*
X28350Y31392D01*
X28265Y31376D01*
X28193Y31327D01*
X28148Y31260D01*
X28100Y31275D01*
Y31697D01*
X28812D01*
X28900Y31609D01*
D02*
G37*
G36*
X30299Y33700D02*
Y33303D01*
X30299D01*
Y33272D01*
X30265Y33265D01*
X30193Y33217D01*
X30145Y33145D01*
X30128Y33060D01*
Y32785D01*
X30350D01*
Y32705D01*
X30128D01*
Y32700D01*
X30072D01*
Y32705D01*
X29628D01*
Y32700D01*
X29572D01*
Y32705D01*
X29128D01*
Y32700D01*
X29072D01*
Y32705D01*
X28628D01*
Y32700D01*
X28572D01*
Y33060D01*
X28555Y33145D01*
X28550Y33153D01*
Y34147D01*
X29852D01*
X30299Y33700D01*
D02*
G37*
G36*
X32503Y35105D02*
X32800D01*
Y35065D01*
X32840D01*
Y34749D01*
X33097D01*
Y34749D01*
X33110D01*
X33146Y34713D01*
Y34493D01*
X33102Y34469D01*
X33038Y34512D01*
X32950Y34529D01*
X32862Y34512D01*
X32788Y34462D01*
X32738Y34388D01*
X32721Y34300D01*
X32737Y34219D01*
X32705Y34180D01*
X32536D01*
X32420Y34296D01*
Y34749D01*
X32447D01*
Y35110D01*
X32503D01*
Y35105D01*
D02*
G37*
G36*
X25149Y31040D02*
X25465D01*
Y31000D01*
X25505D01*
Y30703D01*
X25700D01*
Y30400D01*
X24906D01*
X24850Y30456D01*
Y31200D01*
X25149D01*
Y31040D01*
D02*
G37*
G36*
X32785Y31757D02*
X32790Y31730D01*
Y31602D01*
X32755Y31596D01*
X32794Y31564D01*
Y31210D01*
X32737Y31153D01*
X31563D01*
X31503Y31213D01*
Y31615D01*
X32283D01*
X32294Y31607D01*
X32356Y31595D01*
X32418Y31607D01*
X32430Y31615D01*
X32479D01*
X32491Y31607D01*
X32513Y31602D01*
Y31730D01*
X32518Y31757D01*
Y32003D01*
X32593D01*
Y31602D01*
X32615Y31607D01*
X32627Y31615D01*
X32676D01*
X32688Y31607D01*
X32710Y31602D01*
Y32003D01*
X32785D01*
Y31757D01*
D02*
G37*
G36*
X25947Y27750D02*
X26000D01*
Y26650D01*
X21500D01*
Y26703D01*
X21495D01*
Y27000D01*
Y27297D01*
X21500D01*
Y27369D01*
X23303D01*
Y27349D01*
X23560D01*
Y27665D01*
X23600D01*
Y27705D01*
X23897D01*
Y27750D01*
X24372D01*
Y27666D01*
X24828D01*
Y27750D01*
X25353D01*
Y27805D01*
X25947D01*
Y27750D01*
D02*
G37*
G36*
X18069Y28635D02*
Y28630D01*
X18385D01*
Y28590D01*
X18425D01*
Y28293D01*
X18500D01*
Y28162D01*
X18453D01*
Y27994D01*
X18413D01*
Y27966D01*
X18114D01*
X18054Y27954D01*
X17953D01*
X17946Y27989D01*
X17914Y27950D01*
X17795D01*
X17550Y28195D01*
Y28630D01*
X17563Y28635D01*
X18069D01*
X18069Y28635D01*
D02*
G37*
G36*
X18326Y26553D02*
X17597D01*
Y26725D01*
X17300D01*
Y26805D01*
X17597D01*
Y26950D01*
X18326D01*
Y26553D01*
D02*
G37*
G36*
X29150Y27944D02*
Y27863D01*
X29145Y27855D01*
X29128Y27770D01*
Y27140D01*
X29145Y27055D01*
X29150Y27047D01*
Y26650D01*
X28550D01*
Y27047D01*
X28555Y27055D01*
X28572Y27140D01*
Y27770D01*
X28555Y27855D01*
X28550Y27863D01*
Y28250D01*
X28844D01*
X29150Y27944D01*
D02*
G37*
G36*
X23949Y29940D02*
X24265D01*
Y29900D01*
X24305D01*
Y29603D01*
X24301D01*
Y29547D01*
X24305D01*
Y29250D01*
Y28953D01*
X24301D01*
Y28750D01*
X24266D01*
Y28374D01*
X24226D01*
Y28334D01*
X23998D01*
Y28300D01*
X23897D01*
Y28295D01*
X23600D01*
Y28335D01*
X23560D01*
Y28651D01*
X23401D01*
Y29950D01*
X23949D01*
Y29940D01*
D02*
G37*
G36*
X30897Y29997D02*
Y28643D01*
X30604Y28350D01*
X30250D01*
Y28788D01*
X30289Y28820D01*
X30310Y28815D01*
Y29345D01*
Y29874D01*
X30289Y29870D01*
X30250Y29902D01*
Y30250D01*
X30644D01*
X30897Y29997D01*
D02*
G37*
G36*
X38870Y29040D02*
X37060D01*
Y30970D01*
X38870D01*
Y29040D01*
D02*
G37*
G36*
X15425Y29353D02*
X15668D01*
X15703Y29318D01*
Y29305D01*
X16000D01*
Y29265D01*
X16040D01*
Y28949D01*
X16297D01*
Y28949D01*
X16303D01*
X16332Y28949D01*
Y28949D01*
X16332D01*
Y28949D01*
X16560D01*
Y29265D01*
X16640D01*
Y28949D01*
X16800D01*
Y28697D01*
X16618D01*
X16618Y28697D01*
X16582D01*
Y28697D01*
X15949D01*
Y28650D01*
X15350D01*
Y29353D01*
X15345D01*
Y29650D01*
X15425D01*
Y29353D01*
D02*
G37*
G36*
X29697Y30281D02*
Y30000D01*
X29697Y30000D01*
X29697D01*
X29709Y29941D01*
X29742Y29892D01*
X29732Y29843D01*
X29693Y29817D01*
X29645Y29745D01*
X29628Y29660D01*
Y29385D01*
X29850D01*
Y29305D01*
X29628D01*
Y29030D01*
X29645Y28945D01*
X29693Y28873D01*
X29752Y28833D01*
X29757Y28783D01*
X29742Y28768D01*
X29709Y28719D01*
X29697Y28660D01*
Y28200D01*
X29326D01*
X28753Y28773D01*
Y28787D01*
X28792Y28819D01*
X28810Y28815D01*
Y29345D01*
X28850D01*
Y29385D01*
X29072D01*
Y29660D01*
X29055Y29745D01*
X29007Y29817D01*
X28935Y29865D01*
X28925Y29899D01*
X29334Y30308D01*
X29697Y30281D01*
D02*
G37*
G36*
X22343Y39993D02*
X22400Y39955D01*
Y39845D01*
X22343Y39807D01*
X22325Y39780D01*
X22292Y39758D01*
X22092Y39558D01*
X22059Y39509D01*
X22047Y39450D01*
Y39100D01*
X22059Y39041D01*
X22092Y38992D01*
X22292Y38792D01*
X22320Y38773D01*
X22295Y38735D01*
X22286Y38690D01*
X22795D01*
Y38650D01*
X22835D01*
Y38428D01*
X22900D01*
Y38350D01*
X21966D01*
X21553Y38763D01*
Y39837D01*
X21712Y39996D01*
X22341D01*
X22343Y39993D01*
D02*
G37*
G36*
X19300Y34400D02*
X16600D01*
Y37468D01*
X16646Y37488D01*
X17245Y36889D01*
X17226Y36843D01*
X17056D01*
Y34477D01*
X18044D01*
Y36312D01*
X18653D01*
Y36149D01*
X19247D01*
Y36782D01*
X19247Y36782D01*
Y36818D01*
X19247D01*
Y37095D01*
X18653D01*
Y36818D01*
X18653Y36818D01*
X18653Y36782D01*
X18653D01*
Y36618D01*
X18044D01*
Y36843D01*
X17694D01*
X17691Y36859D01*
X17658Y36908D01*
X16600Y37966D01*
Y38347D01*
X17056D01*
Y38217D01*
X18044D01*
Y38582D01*
X18653D01*
Y38418D01*
X18653Y38418D01*
X18653Y38382D01*
X18653D01*
Y38105D01*
X19247D01*
Y38382D01*
X19247Y38382D01*
Y38418D01*
X19247D01*
Y39051D01*
X18653D01*
Y38888D01*
X18044D01*
Y40583D01*
X17056D01*
Y38653D01*
X16600D01*
Y40700D01*
X19300D01*
Y34400D01*
D02*
G37*
G36*
X18500Y42500D02*
X16800D01*
Y43053D01*
X17051D01*
Y43647D01*
X16888D01*
Y43665D01*
X16876Y43724D01*
X16843Y43773D01*
X16843Y43773D01*
X16843D01*
X16843Y43774D01*
Y43773D01*
X16800Y43816D01*
Y44107D01*
X16860D01*
Y44300D01*
X16940D01*
Y44107D01*
X17354D01*
Y44149D01*
X17610D01*
Y44465D01*
X17650D01*
Y44505D01*
X17947D01*
Y44550D01*
X18500D01*
Y42500D01*
D02*
G37*
G36*
X35200Y35700D02*
X34697D01*
Y35695D01*
X34400D01*
Y35735D01*
X34360D01*
Y36051D01*
X34103D01*
Y36051D01*
X34090D01*
X34054Y36087D01*
Y36366D01*
X33640D01*
Y35951D01*
X33560D01*
Y36366D01*
X33146D01*
Y36051D01*
X33097D01*
Y36051D01*
X32840D01*
Y35735D01*
X32800D01*
Y35695D01*
X32503D01*
Y35700D01*
X32447D01*
Y35695D01*
X32150D01*
Y35735D01*
X32110D01*
Y36051D01*
X31640D01*
Y35735D01*
X31600D01*
Y35695D01*
X31303D01*
Y35700D01*
X31200D01*
X31100Y35778D01*
Y37100D01*
X35200D01*
Y35700D01*
D02*
G37*
G36*
X26797Y39800D02*
X26850D01*
Y38000D01*
X26316D01*
X25553Y38763D01*
Y39149D01*
X25710D01*
Y39465D01*
X25750D01*
Y39505D01*
X26047D01*
Y39782D01*
X26065Y39800D01*
X26203D01*
Y39805D01*
X26797D01*
Y39800D01*
D02*
G37*
%LPC*%
G36*
X29072Y29305D02*
X28890D01*
Y28815D01*
X28935Y28824D01*
X29007Y28873D01*
X29055Y28945D01*
X29072Y29030D01*
Y29305D01*
D02*
G37*
G36*
X29310D02*
X29128D01*
Y29030D01*
X29145Y28945D01*
X29193Y28873D01*
X29265Y28824D01*
X29310Y28815D01*
Y29305D01*
D02*
G37*
G36*
X29572D02*
X29390D01*
Y28815D01*
X29435Y28824D01*
X29507Y28873D01*
X29555Y28945D01*
X29572Y29030D01*
Y29305D01*
D02*
G37*
G36*
X22755Y38610D02*
X22286D01*
X22295Y38565D01*
X22343Y38493D01*
X22415Y38445D01*
X22500Y38428D01*
X22755D01*
Y38610D01*
D02*
G37*
G36*
X23897Y28651D02*
X23640D01*
Y28375D01*
X23897D01*
Y28651D01*
D02*
G37*
G36*
X24186Y28750D02*
X23998D01*
Y28414D01*
X24186D01*
Y28750D01*
D02*
G37*
G36*
X19371Y28887D02*
X19095D01*
Y28630D01*
X19371D01*
Y28887D01*
D02*
G37*
G36*
X17954Y29209D02*
X17540D01*
Y28834D01*
X17954D01*
Y29209D01*
D02*
G37*
G36*
X15960Y29225D02*
X15703D01*
Y28949D01*
X15960D01*
Y29225D01*
D02*
G37*
G36*
X18360D02*
X18103D01*
Y28949D01*
X18360D01*
Y29225D01*
D02*
G37*
G36*
X17460Y29209D02*
X17046D01*
Y28834D01*
X17460D01*
Y29209D01*
D02*
G37*
G36*
X30572Y29305D02*
X30390D01*
Y28815D01*
X30435Y28824D01*
X30507Y28873D01*
X30555Y28945D01*
X30572Y29030D01*
Y29305D01*
D02*
G37*
G36*
X24225Y29210D02*
X23949D01*
Y28953D01*
X24225D01*
Y29210D01*
D02*
G37*
G36*
X18697Y29225D02*
X18440D01*
Y28949D01*
X18697D01*
Y29225D01*
D02*
G37*
G36*
X26047Y39425D02*
X25790D01*
Y39149D01*
X26047D01*
Y39425D01*
D02*
G37*
G36*
X24560Y27586D02*
X24372D01*
Y27250D01*
X24560D01*
Y27586D01*
D02*
G37*
G36*
X21851Y27297D02*
X21575D01*
Y27040D01*
X21851D01*
Y27297D01*
D02*
G37*
G36*
X23897Y27625D02*
X23640D01*
Y27349D01*
X23897D01*
Y27625D01*
D02*
G37*
G36*
X24828Y27586D02*
X24640D01*
Y27250D01*
X24828D01*
Y27586D01*
D02*
G37*
G36*
X21851Y26960D02*
X21575D01*
Y26703D01*
X21851D01*
Y26960D01*
D02*
G37*
G36*
X17947Y44425D02*
X17690D01*
Y44149D01*
X17947D01*
Y44425D01*
D02*
G37*
G36*
X29072Y27415D02*
X28890D01*
Y26926D01*
X28935Y26935D01*
X29007Y26983D01*
X29055Y27055D01*
X29072Y27140D01*
Y27415D01*
D02*
G37*
G36*
X28810D02*
X28628D01*
Y27140D01*
X28645Y27055D01*
X28693Y26983D01*
X28765Y26935D01*
X28810Y26926D01*
Y27415D01*
D02*
G37*
G36*
X25610Y27725D02*
X25353D01*
Y27449D01*
X25610D01*
Y27725D01*
D02*
G37*
G36*
X18373Y28162D02*
X18114D01*
X18049Y28149D01*
X17995Y28113D01*
X17958Y28058D01*
X17953Y28034D01*
X18373D01*
Y28162D01*
D02*
G37*
G36*
X26460Y39725D02*
X26203D01*
Y39449D01*
X26460D01*
Y39725D01*
D02*
G37*
G36*
X18345Y28550D02*
X18069D01*
Y28293D01*
X18345D01*
Y28550D01*
D02*
G37*
G36*
X19947Y28162D02*
X19689D01*
X19624Y28149D01*
X19569Y28113D01*
X19533Y28058D01*
X19528Y28034D01*
X19947D01*
Y28162D01*
D02*
G37*
G36*
X28810Y27985D02*
X28765Y27976D01*
X28693Y27927D01*
X28645Y27855D01*
X28628Y27770D01*
Y27495D01*
X28810D01*
Y27985D01*
D02*
G37*
G36*
X25947Y27725D02*
X25690D01*
Y27449D01*
X25947D01*
Y27725D01*
D02*
G37*
G36*
X26797Y39725D02*
X26540D01*
Y39449D01*
X26797D01*
Y39725D01*
D02*
G37*
G36*
X28890Y27985D02*
Y27495D01*
X29072D01*
Y27770D01*
X29055Y27855D01*
X29007Y27927D01*
X28935Y27976D01*
X28890Y27985D01*
D02*
G37*
G36*
X24225Y29547D02*
X23949D01*
Y29290D01*
X24225D01*
Y29547D01*
D02*
G37*
G36*
X32760Y36051D02*
X32503D01*
Y35775D01*
X32760D01*
Y36051D01*
D02*
G37*
G36*
X17954Y30766D02*
X17540D01*
Y30391D01*
X17954D01*
Y30766D01*
D02*
G37*
G36*
X28810Y31385D02*
X28765Y31376D01*
X28693Y31327D01*
X28645Y31255D01*
X28628Y31170D01*
Y30895D01*
X28810D01*
Y31385D01*
D02*
G37*
G36*
X25425Y30960D02*
X25149D01*
Y30703D01*
X25425D01*
Y30960D01*
D02*
G37*
G36*
X17460Y30766D02*
X17046D01*
Y30391D01*
X17460D01*
Y30766D01*
D02*
G37*
G36*
X18910Y37451D02*
X18653D01*
Y37175D01*
X18910D01*
Y37451D01*
D02*
G37*
G36*
X38008Y30519D02*
Y30040D01*
X38488D01*
X38475Y30136D01*
X38423Y30262D01*
X38339Y30371D01*
X38231Y30454D01*
X38104Y30507D01*
X38008Y30519D01*
D02*
G37*
G36*
X28810Y30815D02*
X28628D01*
Y30540D01*
X28645Y30455D01*
X28693Y30383D01*
X28765Y30335D01*
X28810Y30326D01*
Y30815D01*
D02*
G37*
G36*
X34697Y36051D02*
X34440D01*
Y35775D01*
X34697D01*
Y36051D01*
D02*
G37*
G36*
X29810Y33274D02*
X29765Y33265D01*
X29693Y33217D01*
X29645Y33145D01*
X29628Y33060D01*
Y32785D01*
X29810D01*
Y33274D01*
D02*
G37*
G36*
X29390D02*
Y32785D01*
X29572D01*
Y33060D01*
X29555Y33145D01*
X29507Y33217D01*
X29435Y33265D01*
X29390Y33274D01*
D02*
G37*
G36*
X32760Y35025D02*
X32503D01*
Y34749D01*
X32760D01*
Y35025D01*
D02*
G37*
G36*
X29890Y33274D02*
Y32785D01*
X30072D01*
Y33060D01*
X30055Y33145D01*
X30007Y33217D01*
X29935Y33265D01*
X29890Y33274D01*
D02*
G37*
G36*
X29310D02*
X29265Y33265D01*
X29193Y33217D01*
X29145Y33145D01*
X29128Y33060D01*
Y32785D01*
X29310D01*
Y33274D01*
D02*
G37*
G36*
X31560Y36051D02*
X31303D01*
Y35775D01*
X31560D01*
Y36051D01*
D02*
G37*
G36*
X32447D02*
X32190D01*
Y35775D01*
X32447D01*
Y36051D01*
D02*
G37*
G36*
X28890Y33274D02*
Y32785D01*
X29072D01*
Y33060D01*
X29055Y33145D01*
X29007Y33217D01*
X28935Y33265D01*
X28890Y33274D01*
D02*
G37*
G36*
X28810D02*
X28765Y33265D01*
X28693Y33217D01*
X28645Y33145D01*
X28628Y33060D01*
Y32785D01*
X28810D01*
Y33274D01*
D02*
G37*
G36*
X38488Y29960D02*
X38008D01*
Y29481D01*
X38104Y29493D01*
X38231Y29546D01*
X38339Y29629D01*
X38423Y29738D01*
X38475Y29864D01*
X38488Y29960D01*
D02*
G37*
G36*
X37929D02*
X37449D01*
X37462Y29864D01*
X37514Y29738D01*
X37598Y29629D01*
X37706Y29546D01*
X37833Y29493D01*
X37929Y29481D01*
Y29960D01*
D02*
G37*
G36*
X19247Y38025D02*
X18990D01*
Y37749D01*
X19247D01*
Y38025D01*
D02*
G37*
G36*
X24225Y29860D02*
X23949D01*
Y29603D01*
X24225D01*
Y29860D01*
D02*
G37*
G36*
X19405Y29560D02*
X19150D01*
Y29437D01*
X19250D01*
X19312Y29449D01*
X19365Y29485D01*
X19401Y29538D01*
X19405Y29560D01*
D02*
G37*
G36*
X29390Y29874D02*
Y29385D01*
X29572D01*
Y29660D01*
X29555Y29745D01*
X29507Y29817D01*
X29435Y29865D01*
X29390Y29874D01*
D02*
G37*
G36*
X29310D02*
X29265Y29865D01*
X29193Y29817D01*
X29145Y29745D01*
X29128Y29660D01*
Y29385D01*
X29310D01*
Y29874D01*
D02*
G37*
G36*
X19070Y29560D02*
X18815D01*
X18819Y29538D01*
X18855Y29485D01*
X18908Y29449D01*
X18970Y29437D01*
X19070D01*
Y29560D01*
D02*
G37*
G36*
X30390Y29874D02*
Y29385D01*
X30572D01*
Y29660D01*
X30555Y29745D01*
X30507Y29817D01*
X30435Y29865D01*
X30390Y29874D01*
D02*
G37*
G36*
X18360Y30251D02*
X18103D01*
Y29975D01*
X18360D01*
Y30251D01*
D02*
G37*
G36*
X16897D02*
X16640D01*
Y29975D01*
X16897D01*
Y30251D01*
D02*
G37*
G36*
X37929Y30519D02*
X37833Y30507D01*
X37706Y30454D01*
X37598Y30371D01*
X37514Y30262D01*
X37462Y30136D01*
X37449Y30040D01*
X37929D01*
Y30519D01*
D02*
G37*
G36*
X18697Y30251D02*
X18440D01*
Y29975D01*
X18697D01*
Y30251D01*
D02*
G37*
G36*
X15960D02*
X15703D01*
Y29975D01*
X15960D01*
Y30251D01*
D02*
G37*
G36*
X17460Y30311D02*
X17046D01*
Y29936D01*
X17460D01*
Y30311D01*
D02*
G37*
G36*
X18910Y38025D02*
X18653D01*
Y37749D01*
X18910D01*
Y38025D01*
D02*
G37*
G36*
X19247Y37451D02*
X18990D01*
Y37175D01*
X19247D01*
Y37451D01*
D02*
G37*
G36*
X17954Y30311D02*
X17540D01*
Y29936D01*
X17954D01*
Y30311D01*
D02*
G37*
%LPD*%
D10*
X24705Y39150D02*
D03*
Y38650D02*
D03*
X22795Y39150D02*
D03*
Y39650D02*
D03*
X24705D02*
D03*
Y40150D02*
D03*
X22795Y38650D02*
D03*
Y40150D02*
D03*
D11*
X17000Y33065D02*
D03*
Y33735D02*
D03*
X16200Y33065D02*
D03*
Y33735D02*
D03*
X21700Y28915D02*
D03*
Y29585D02*
D03*
X26500Y40435D02*
D03*
Y39765D02*
D03*
X18400Y29265D02*
D03*
X25650Y28435D02*
D03*
X23600Y28335D02*
D03*
X25650Y27765D02*
D03*
X16000Y29935D02*
D03*
Y29265D02*
D03*
X16600Y29935D02*
D03*
X26900Y41815D02*
D03*
Y42485D02*
D03*
X25750Y39465D02*
D03*
Y40135D02*
D03*
X32800Y35735D02*
D03*
Y35065D02*
D03*
X31600Y35735D02*
D03*
Y35065D02*
D03*
X19580Y43265D02*
D03*
Y43935D02*
D03*
X18950D02*
D03*
Y43265D02*
D03*
X24480Y41700D02*
D03*
Y41031D02*
D03*
X23070Y41735D02*
D03*
Y41065D02*
D03*
X18950Y38735D02*
D03*
Y38065D02*
D03*
X34400Y35735D02*
D03*
Y35065D02*
D03*
X25200Y41700D02*
D03*
Y41031D02*
D03*
X18950Y37135D02*
D03*
Y36465D02*
D03*
X17650Y44465D02*
D03*
Y45135D02*
D03*
X22350Y41065D02*
D03*
Y41735D02*
D03*
X17300Y27435D02*
D03*
Y26765D02*
D03*
X16800D02*
D03*
Y27435D02*
D03*
X16300Y26765D02*
D03*
Y27435D02*
D03*
X16600Y29265D02*
D03*
X18400Y29935D02*
D03*
X23600Y27665D02*
D03*
X32150Y35065D02*
D03*
Y35735D02*
D03*
X31350Y32065D02*
D03*
Y32735D02*
D03*
D12*
X20465Y31000D02*
D03*
X21135D02*
D03*
X18385Y28590D02*
D03*
X19055D02*
D03*
X22985Y28900D02*
D03*
X22315D02*
D03*
X22985Y29600D02*
D03*
X22315D02*
D03*
X18865Y31000D02*
D03*
X15385Y29600D02*
D03*
X19535Y31000D02*
D03*
X22265Y27800D02*
D03*
X21535D02*
D03*
X20865D02*
D03*
X22935D02*
D03*
X24935Y29250D02*
D03*
X24265D02*
D03*
Y29900D02*
D03*
X24935D02*
D03*
X33335Y28800D02*
D03*
X32665D02*
D03*
X16735Y43350D02*
D03*
X16065D02*
D03*
X22765Y34400D02*
D03*
X23435D02*
D03*
X22765Y33800D02*
D03*
X23435D02*
D03*
X24985Y36600D02*
D03*
X24315D02*
D03*
X26485D02*
D03*
X25815D02*
D03*
Y37400D02*
D03*
X26485D02*
D03*
X24985D02*
D03*
X24315D02*
D03*
X23585D02*
D03*
X22915D02*
D03*
Y36600D02*
D03*
X23585D02*
D03*
X16265Y28400D02*
D03*
X16935D02*
D03*
X20865Y27000D02*
D03*
X21535D02*
D03*
X25465Y31000D02*
D03*
X26135D02*
D03*
X14715Y29600D02*
D03*
X31285Y33600D02*
D03*
X30615D02*
D03*
D13*
X21000Y29600D02*
D03*
D14*
Y29797D02*
D03*
Y29994D02*
D03*
Y30191D02*
D03*
Y30388D02*
D03*
X19110Y29600D02*
D03*
Y29797D02*
D03*
Y29994D02*
D03*
Y30191D02*
D03*
Y30388D02*
D03*
D15*
X24974Y28374D02*
D03*
X24226D02*
D03*
X24600Y27626D02*
D03*
D16*
X28350Y30855D02*
D03*
Y27455D02*
D03*
X30350Y29345D02*
D03*
X29850D02*
D03*
X29350D02*
D03*
X28850D02*
D03*
X28350D02*
D03*
X27850D02*
D03*
X27350D02*
D03*
X26850D02*
D03*
X30350Y27455D02*
D03*
X29850D02*
D03*
X29350D02*
D03*
X28850D02*
D03*
X27850D02*
D03*
X27350D02*
D03*
X26850D02*
D03*
Y30855D02*
D03*
X27350D02*
D03*
X27850D02*
D03*
X28850D02*
D03*
X29350D02*
D03*
X29850D02*
D03*
X30350D02*
D03*
X26850Y32745D02*
D03*
X27350D02*
D03*
X27850D02*
D03*
X28350D02*
D03*
X28850D02*
D03*
X29350D02*
D03*
X29850D02*
D03*
X30350D02*
D03*
D17*
X19987Y27994D02*
D03*
X18413Y27600D02*
D03*
X19987Y27797D02*
D03*
Y27206D02*
D03*
Y27403D02*
D03*
Y27600D02*
D03*
X18413Y27206D02*
D03*
Y27403D02*
D03*
Y27797D02*
D03*
Y27994D02*
D03*
D18*
X17500Y29249D02*
D03*
X33600Y35951D02*
D03*
Y34849D02*
D03*
X17500Y30351D02*
D03*
D19*
X32750Y32800D02*
D03*
D20*
X32553Y32003D02*
D03*
X32750D02*
D03*
X32947D02*
D03*
X32356Y33597D02*
D03*
X32553D02*
D03*
X32750D02*
D03*
X32947D02*
D03*
X33144D02*
D03*
X32356Y32003D02*
D03*
X33144D02*
D03*
D21*
X17550Y35660D02*
D03*
Y39400D02*
D03*
D22*
X16900Y45800D02*
D03*
Y45300D02*
D03*
Y44800D02*
D03*
Y44300D02*
D03*
X14821D02*
D03*
Y44800D02*
D03*
Y45300D02*
D03*
Y45800D02*
D03*
D23*
X24548Y42597D02*
D03*
D24*
X23150Y42833D02*
D03*
Y42400D02*
D03*
D25*
X23300Y38900D02*
X23585Y38615D01*
Y37400D02*
Y38615D01*
X22400Y38900D02*
X23300D01*
X22200Y39100D02*
X22400Y38900D01*
X22200Y39100D02*
Y39450D01*
X22400Y39650D01*
X22750D01*
X24985Y37400D02*
X25815D01*
X25000D02*
Y37750D01*
X25240Y37990D01*
Y38810D01*
X24900Y39150D02*
X25240Y38810D01*
X24705Y39150D02*
X24900D01*
X23950Y38900D02*
X24200Y38650D01*
X23950Y38900D02*
Y41600D01*
X24200Y38650D02*
X24705D01*
X23450Y39350D02*
Y41600D01*
X23050Y41700D02*
X23150Y41800D01*
X22350Y41700D02*
X23350D01*
X23250Y39150D02*
X23450Y39350D01*
X22795Y39150D02*
X23250D01*
X17000Y33100D02*
X17650D01*
X17000D02*
X17650D01*
X24974Y28374D02*
Y28435D01*
X25650D01*
X24974D02*
X25650D01*
X21150Y31000D02*
Y31200D01*
Y31000D02*
Y31200D01*
X17950Y28000D02*
X18413D01*
X16000Y29950D02*
X16600D01*
X16200Y33740D02*
X17000D01*
X16200D02*
X17000D01*
X24350Y41000D02*
X24480D01*
X24350D02*
X24480D01*
X24350D02*
X24480D01*
X24350D02*
X24480D01*
X24350D02*
X24480D01*
X24350D02*
X24480D01*
X24350D02*
X24480D01*
X24350D02*
X24480D01*
X24350D02*
X24480D01*
X24350D02*
X24480D01*
X24350D02*
X24480D01*
X24350D02*
X24480D01*
X24350D02*
X24480D01*
X24350D02*
X24480D01*
X24350D02*
X24480D01*
X24350D02*
X24480D01*
X24350D02*
X24480D01*
X24350D02*
X24480D01*
X24350D02*
X24480D01*
X24350D02*
X24480D01*
X24350D02*
X24480D01*
X24350D02*
X24480D01*
X24350D02*
X24480D01*
X24350D02*
X24480D01*
X25200D01*
X24480D02*
X25200D01*
X24480D02*
X25200D01*
X24480D02*
X25200D01*
X24480D02*
X25200D01*
X24480D02*
X25200D01*
X24480D02*
X25200D01*
X24480D02*
X25200D01*
X24480D02*
X25200D01*
X24480D02*
X25200D01*
X24480D02*
X25200D01*
X24480D02*
X25200D01*
X24480D02*
X25200D01*
X24480D02*
X25200D01*
X24480D02*
X25200D01*
X24480D02*
X25200D01*
X24480D02*
X25200D01*
X24480D02*
X25200D01*
X24480D02*
X25200D01*
X25300D01*
X24480D02*
X25200D01*
X24480D02*
X25200D01*
X25300D01*
X25200D02*
X25300D01*
X25200D02*
X25300D01*
X25200D02*
X25300D01*
X25200D02*
X25300D01*
X25200D02*
X25300D01*
X25200D02*
X25300D01*
X25200D02*
X25300D01*
X24480D02*
X25200D01*
X24480D02*
X25200D01*
X24480D02*
X25200D01*
X25300D01*
X25200D02*
X25300D01*
X25200D02*
X25300D01*
X25200D02*
X25300D01*
X25200D02*
X25300D01*
X25200D02*
X25300D01*
X25200D02*
X25300D01*
X25200D02*
X25300D01*
X25200D02*
X25300D01*
X25200D02*
X25300D01*
X25200D02*
X25300D01*
X25200D02*
X25300D01*
X25200D02*
X25300D01*
X25200D02*
X25300D01*
X25200D02*
X25300D01*
X24450Y41700D02*
X24465Y41715D01*
X24450Y41700D02*
X24465Y41715D01*
X24450Y41700D02*
X24465Y41715D01*
X24450Y41700D02*
X24465Y41715D01*
X24450Y41700D02*
X24465Y41715D01*
X24450Y41700D02*
X24465Y41715D01*
X24450Y41700D02*
X24465Y41715D01*
X24450Y41700D02*
X24465Y41715D01*
X24450Y41700D02*
X24465Y41715D01*
X24450Y41700D02*
X24465Y41715D01*
X24450Y41700D02*
X24465Y41715D01*
X24450Y41700D02*
X24465Y41715D01*
X24450Y41700D02*
X24465Y41715D01*
X24450Y41700D02*
X24465Y41715D01*
X24450Y41700D02*
X24465Y41715D01*
X24450Y41700D02*
X24465Y41715D01*
X24450Y41700D02*
X24465Y41715D01*
X24450Y41700D02*
X24465Y41715D01*
X24450Y41700D02*
X24465Y41715D01*
X24450Y41700D02*
X24465Y41715D01*
X24450Y41700D02*
X24465Y41715D01*
X24450Y41700D02*
X24465Y41715D01*
X24450Y41700D02*
X24465Y41715D01*
X24450Y41700D02*
X24465Y41715D01*
X24548Y41798D01*
X24465Y41715D02*
X24548Y41798D01*
X24465Y41715D02*
X24548Y41798D01*
X24465Y41715D02*
X24548Y41798D01*
X24465Y41715D02*
X24548Y41798D01*
X24465Y41715D02*
X24548Y41798D01*
X24465Y41715D02*
X24548Y41798D01*
X24465Y41715D02*
X24548Y41798D01*
X24465Y41715D02*
X24548Y41798D01*
X24465Y41715D02*
X24548Y41798D01*
X24465Y41715D02*
X24548Y41798D01*
X24465Y41715D02*
X24548Y41798D01*
X24465Y41715D02*
X24548Y41798D01*
X24465Y41715D02*
X24548Y41798D01*
X24465Y41715D02*
X24548Y41798D01*
X24465Y41715D02*
X24548Y41798D01*
X24465Y41715D02*
X24548Y41798D01*
X24465Y41715D02*
X24548Y41798D01*
X24465Y41715D02*
X24548Y41798D01*
X24465Y41715D02*
X24548Y41798D01*
X24465Y41715D02*
X24548Y41798D01*
X24465Y41715D02*
X24548Y41798D01*
X24465Y41715D02*
X24548Y41798D01*
X24465Y41715D02*
X24548Y41798D01*
X22400Y41100D02*
X23070D01*
X22400D02*
X23070D01*
X22400D02*
X23070D01*
X22400D02*
X23070D01*
X22400D02*
X23070D01*
X22400D02*
X23070D01*
X22400D02*
X23070D01*
X22400D02*
X23070D01*
X22400D02*
X23070D01*
X22400D02*
X23070D01*
X22400D02*
X23070D01*
X22400D02*
X23070D01*
X22400D02*
X23070D01*
X22400D02*
X23070D01*
X22400D02*
X23070D01*
X22400D02*
X23070D01*
X22400D02*
X23070D01*
X22400D02*
X23070D01*
X16000Y29250D02*
X16600D01*
X15385D02*
X16000D01*
X16600D01*
X16000D02*
X16600D01*
X16000D02*
X16600D01*
X16000D02*
X16600D01*
X16000D02*
X16600D01*
X16000D02*
X16600D01*
X16000D02*
X16600D01*
X16000D02*
X16600D01*
X16000D02*
X16600D01*
X16000D02*
X16600D01*
X16000D02*
X16600D01*
X16000D02*
X16600D01*
X16000D02*
X16600D01*
X16000D02*
X16600D01*
X16000D02*
X16600D01*
X16000D02*
X16600D01*
X16000D02*
X16600D01*
X16000D02*
X16600D01*
X16000D02*
X16600D01*
X16000D02*
X16600D01*
X16000D02*
X16600D01*
X16000D02*
X16600D01*
X16000D02*
X16600D01*
X34050Y39600D02*
X35915Y41465D01*
X34050Y39600D02*
X35915Y41465D01*
X34050Y39600D02*
X35915Y41465D01*
X34050Y39600D02*
X35915Y41465D01*
X34050Y39600D02*
X35915Y41465D01*
X34050Y39600D02*
X35915Y41465D01*
X34050Y39600D02*
X35915Y41465D01*
X34050Y39600D02*
X35915Y41465D01*
X34050Y39600D02*
X35915Y41465D01*
X34050Y39600D02*
X35915Y41465D01*
X34050Y39600D02*
X35915Y41465D01*
X34050Y39600D02*
X35915Y41465D01*
X32400Y40050D02*
X33865Y41515D01*
X32400Y40050D02*
X33865Y41515D01*
X32400Y40050D02*
X33865Y41515D01*
X32400Y40050D02*
X33865Y41515D01*
X32400Y40050D02*
X33865Y41515D01*
X32400Y40050D02*
X33865Y41515D01*
X32400Y40050D02*
X33865Y41515D01*
X32400Y40050D02*
X33865Y41515D01*
X32400Y40050D02*
X33865Y41515D01*
X32400Y40050D02*
X33865Y41515D01*
X32400Y40050D02*
X33865Y41515D01*
X32400Y40050D02*
X33865Y41515D01*
X33250Y39800D02*
X34915Y41465D01*
X33250Y39800D02*
X34915Y41465D01*
X33250Y39800D02*
X34915Y41465D01*
X33250Y39800D02*
X34915Y41465D01*
X33250Y39800D02*
X34915Y41465D01*
X33250Y39800D02*
X34915Y41465D01*
X33250Y39800D02*
X34915Y41465D01*
X33250Y39800D02*
X34915Y41465D01*
X33250Y39800D02*
X34915Y41465D01*
X33250Y39800D02*
X34915Y41465D01*
X33250Y39800D02*
X34915Y41465D01*
X33250Y39800D02*
X34915Y41465D01*
X33250Y39800D02*
X34915Y41465D01*
X33250Y39800D02*
X34915Y41465D01*
X33250Y39800D02*
X34915Y41465D01*
X33250Y39800D02*
X34915Y41465D01*
X33250Y39800D02*
X34915Y41465D01*
X33250Y39800D02*
X34915Y41465D01*
X33250Y39800D02*
X34915Y41465D01*
X33250Y39800D02*
X34915Y41465D01*
X33250Y39800D02*
X34915Y41465D01*
X33250Y39800D02*
X34915Y41465D01*
X33250Y39800D02*
X34915Y41465D01*
X33250Y39800D02*
X34915Y41465D01*
X34950Y41500D01*
X34915Y41465D02*
X34950Y41500D01*
X34915Y41465D02*
X34950Y41500D01*
X34915Y41465D02*
X34950Y41500D01*
X34915Y41465D02*
X34950Y41500D01*
X34915Y41465D02*
X34950Y41500D01*
X34915Y41465D02*
X34950Y41500D01*
X34915Y41465D02*
X34950Y41500D01*
X34915Y41465D02*
X34950Y41500D01*
X34915Y41465D02*
X34950Y41500D01*
X34915Y41465D02*
X34950Y41500D01*
X34915Y41465D02*
X34950Y41500D01*
X34915Y41465D02*
X34950Y41500D01*
X34915Y41465D02*
X34950Y41500D01*
X34915Y41465D02*
X34950Y41500D01*
X34915Y41465D02*
X34950Y41500D01*
X34915Y41465D02*
X34950Y41500D01*
X34915Y41465D02*
X34950Y41500D01*
X34915Y41465D02*
X34950Y41500D01*
X34915Y41465D02*
X34950Y41500D01*
X34915Y41465D02*
X34950Y41500D01*
X34915Y41465D02*
X34950Y41500D01*
X34915Y41465D02*
X34950Y41500D01*
X34915Y41465D02*
X34950Y41500D01*
X33850Y42500D02*
X33865Y42515D01*
X33850Y42500D02*
X33865Y42515D01*
X33850Y42500D02*
X33865Y42515D01*
X33850Y42500D02*
X33865Y42515D01*
X33850Y42500D02*
X33865Y42515D01*
X33850Y42500D02*
X33865Y42515D01*
X33850Y42500D02*
X33865Y42515D01*
X33850Y42500D02*
X33865Y42515D01*
X33850Y42500D02*
X33865Y42515D01*
X33850Y42500D02*
X33865Y42515D01*
X33850Y42500D02*
X33865Y42515D01*
X33850Y42500D02*
X33865Y42515D01*
X33850Y42500D02*
X33865Y42515D01*
X33850Y42500D02*
X33865Y42515D01*
X33850Y42500D02*
X33865Y42515D01*
X33850Y42500D02*
X33865Y42515D01*
X33850Y42500D02*
X33865Y42515D01*
X33850Y42500D02*
X33865Y42515D01*
X33850Y42500D02*
X33865Y42515D01*
X33850Y42500D02*
X33865Y42515D01*
X33850Y42500D02*
X33865Y42515D01*
X33850Y42500D02*
X33865Y42515D01*
X33850Y42500D02*
X33865Y42515D01*
X33850Y42500D02*
X33865Y42515D01*
X33900Y42550D01*
X33865Y42515D02*
X33900Y42550D01*
X33865Y42515D02*
X33900Y42550D01*
X33865Y42515D02*
X33900Y42550D01*
X33865Y42515D02*
X33900Y42550D01*
X33865Y42515D02*
X33900Y42550D01*
X33865Y42515D02*
X33900Y42550D01*
X33865Y42515D02*
X33900Y42550D01*
X33865Y42515D02*
X33900Y42550D01*
X33865Y42515D02*
X33900Y42550D01*
X33865Y42515D02*
X33900Y42550D01*
X33865Y42515D02*
X33900Y42550D01*
X33865Y42515D02*
X33900Y42550D01*
X33865Y42515D02*
X33900Y42550D01*
X33865Y42515D02*
X33900Y42550D01*
X33865Y42515D02*
X33900Y42550D01*
X33865Y42515D02*
X33900Y42550D01*
X33865Y42515D02*
X33900Y42550D01*
X33865Y42515D02*
X33900Y42550D01*
X33865Y42515D02*
X33900Y42550D01*
X33865Y42515D02*
X33900Y42550D01*
X33865Y42515D02*
X33900Y42550D01*
X33865Y42515D02*
X33900Y42550D01*
X33865Y42515D02*
X33900Y42550D01*
X33865Y42515D02*
X33900Y42550D01*
X33865Y42515D02*
X33900Y42550D01*
X33865Y42515D02*
X33900Y42550D01*
X33865Y42515D02*
X33900Y42550D01*
X33865Y42515D02*
X33900Y42550D01*
X33865Y42515D02*
X33900Y42550D01*
X33865Y42515D02*
X33900Y42550D01*
X33865Y42515D02*
X33900Y42550D01*
X33865Y42515D02*
X33900Y42550D01*
X33865Y42515D02*
X33900Y42550D01*
X33865Y42515D02*
X33900Y42550D01*
X33865Y42515D02*
X33900Y42550D01*
X33865Y42515D02*
X33900Y42550D01*
X33865Y42515D02*
X33900Y42550D01*
X33865Y42515D02*
X33900Y42550D01*
X33865Y42515D02*
X33900Y42550D01*
X33865Y42515D02*
X33900Y42550D01*
X33865Y42515D02*
X33900Y42550D01*
X33865Y42515D02*
X33900Y42550D01*
X33865Y42515D02*
X33900Y42550D01*
X33865Y42515D02*
X33900Y42550D01*
X33865Y42515D02*
X33900Y42550D01*
X33865Y42515D02*
X33900Y42550D01*
X33865Y42515D02*
X33900Y42550D01*
X33850Y42500D02*
X33865Y42515D01*
X33850Y42500D02*
X33865Y42515D01*
X33850Y42500D02*
X33865Y42515D01*
X33850Y42500D02*
X33865Y42515D01*
X33850Y42500D02*
X33865Y42515D01*
X33850Y42500D02*
X33865Y42515D01*
X33850Y42500D02*
X33865Y42515D01*
X33850Y42500D02*
X33865Y42515D01*
X33850Y42500D02*
X33865Y42515D01*
X33850Y42500D02*
X33865Y42515D01*
X33850Y42500D02*
X33865Y42515D01*
X33850Y42500D02*
X33865Y42515D01*
X33850Y42500D02*
X33865Y42515D01*
X33850Y42500D02*
X33865Y42515D01*
X33850Y42500D02*
X33865Y42515D01*
X33850Y42500D02*
X33865Y42515D01*
X33850Y42500D02*
X33865Y42515D01*
X33850Y42500D02*
X33865Y42515D01*
X33850Y42500D02*
X33865Y42515D01*
X33850Y42500D02*
X33865Y42515D01*
X33850Y42500D02*
X33865Y42515D01*
X33850Y42500D02*
X33865Y42515D01*
X33850Y42500D02*
X33865Y42515D01*
X33850Y42500D02*
X33865Y42515D01*
X26001Y40651D02*
X26500D01*
X34915Y41465D02*
X34950Y41500D01*
X34915Y41465D02*
X34950Y41500D01*
X34915Y41465D02*
X34950Y41500D01*
X34915Y41465D02*
X34950Y41500D01*
X34915Y41465D02*
X34950Y41500D01*
X34915Y41465D02*
X34950Y41500D01*
X34915Y41465D02*
X34950Y41500D01*
X34915Y41465D02*
X34950Y41500D01*
X34915Y41465D02*
X34950Y41500D01*
X34915Y41465D02*
X34950Y41500D01*
X34915Y41465D02*
X34950Y41500D01*
X34915Y41465D02*
X34950Y41500D01*
X34915Y41465D02*
X34950Y41500D01*
X34915Y41465D02*
X34950Y41500D01*
X34915Y41465D02*
X34950Y41500D01*
X34915Y41465D02*
X34950Y41500D01*
X34915Y41465D02*
X34950Y41500D01*
X34915Y41465D02*
X34950Y41500D01*
X34915Y41465D02*
X34950Y41500D01*
X34915Y41465D02*
X34950Y41500D01*
X34915Y41465D02*
X34950Y41500D01*
X34915Y41465D02*
X34950Y41500D01*
X34915Y41465D02*
X34950Y41500D01*
X34915Y41465D02*
X34950Y41500D01*
X33250Y39800D02*
X34915Y41465D01*
X33250Y39800D02*
X34915Y41465D01*
X33250Y39800D02*
X34915Y41465D01*
X33250Y39800D02*
X34915Y41465D01*
X33250Y39800D02*
X34915Y41465D01*
X33250Y39800D02*
X34915Y41465D01*
X33250Y39800D02*
X34915Y41465D01*
X33250Y39800D02*
X34915Y41465D01*
X33250Y39800D02*
X34915Y41465D01*
X33250Y39800D02*
X34915Y41465D01*
X33250Y39800D02*
X34915Y41465D01*
X33250Y39800D02*
X34915Y41465D01*
X33250Y39800D02*
X34915Y41465D01*
X33250Y39800D02*
X34915Y41465D01*
X33250Y39800D02*
X34915Y41465D01*
X33250Y39800D02*
X34915Y41465D01*
X33250Y39800D02*
X34915Y41465D01*
X33250Y39800D02*
X34915Y41465D01*
X33250Y39800D02*
X34915Y41465D01*
X33250Y39800D02*
X34915Y41465D01*
X33250Y39800D02*
X34915Y41465D01*
X33250Y39800D02*
X34915Y41465D01*
X33250Y39800D02*
X34915Y41465D01*
X33250Y39800D02*
X34915Y41465D01*
X32400Y40050D02*
X33865Y41515D01*
X32400Y40050D02*
X33865Y41515D01*
X32400Y40050D02*
X33865Y41515D01*
X32400Y40050D02*
X33865Y41515D01*
X32400Y40050D02*
X33865Y41515D01*
X32400Y40050D02*
X33865Y41515D01*
X32400Y40050D02*
X33865Y41515D01*
X32400Y40050D02*
X33865Y41515D01*
X32400Y40050D02*
X33865Y41515D01*
X32400Y40050D02*
X33865Y41515D01*
X32400Y40050D02*
X33865Y41515D01*
X32400Y40050D02*
X33865Y41515D01*
X34050Y39600D02*
X35915Y41465D01*
X34050Y39600D02*
X35915Y41465D01*
X34050Y39600D02*
X35915Y41465D01*
X34050Y39600D02*
X35915Y41465D01*
X34050Y39600D02*
X35915Y41465D01*
X34050Y39600D02*
X35915Y41465D01*
X34050Y39600D02*
X35915Y41465D01*
X34050Y39600D02*
X35915Y41465D01*
X34050Y39600D02*
X35915Y41465D01*
X34050Y39600D02*
X35915Y41465D01*
X34050Y39600D02*
X35915Y41465D01*
X34050Y39600D02*
X35915Y41465D01*
X16000Y29250D02*
X16600D01*
X16000D02*
X16600D01*
X16000D02*
X16600D01*
X16000D02*
X16600D01*
X16000D02*
X16600D01*
X16000D02*
X16600D01*
X16000D02*
X16600D01*
X16000D02*
X16600D01*
X16000D02*
X16600D01*
X16000D02*
X16600D01*
X16000D02*
X16600D01*
X16000D02*
X16600D01*
X16000D02*
X16600D01*
X16000D02*
X16600D01*
X16000D02*
X16600D01*
X16000D02*
X16600D01*
X16000D02*
X16600D01*
X16000D02*
X16600D01*
X16000D02*
X16600D01*
X16000D02*
X16600D01*
X16000D02*
X16600D01*
X16000D02*
X16600D01*
X16000D02*
X16600D01*
X16000D02*
X16600D01*
X22400Y41100D02*
X23070D01*
X22400D02*
X23070D01*
X22400D02*
X23070D01*
X22400D02*
X23070D01*
X22400D02*
X23070D01*
X22400D02*
X23070D01*
X22400D02*
X23070D01*
X22400D02*
X23070D01*
X22400D02*
X23070D01*
X22400D02*
X23070D01*
X22400D02*
X23070D01*
X22400D02*
X23070D01*
X22400D02*
X23070D01*
X22400D02*
X23070D01*
X22400D02*
X23070D01*
X22400D02*
X23070D01*
X22400D02*
X23070D01*
X22400D02*
X23070D01*
X24465Y41715D02*
X24548Y41798D01*
X24465Y41715D02*
X24548Y41798D01*
X24465Y41715D02*
X24548Y41798D01*
X24465Y41715D02*
X24548Y41798D01*
X24465Y41715D02*
X24548Y41798D01*
X24465Y41715D02*
X24548Y41798D01*
X24465Y41715D02*
X24548Y41798D01*
X24465Y41715D02*
X24548Y41798D01*
X24465Y41715D02*
X24548Y41798D01*
X24465Y41715D02*
X24548Y41798D01*
X24465Y41715D02*
X24548Y41798D01*
X24465Y41715D02*
X24548Y41798D01*
X24465Y41715D02*
X24548Y41798D01*
X24465Y41715D02*
X24548Y41798D01*
X24465Y41715D02*
X24548Y41798D01*
X24465Y41715D02*
X24548Y41798D01*
X24465Y41715D02*
X24548Y41798D01*
X24465Y41715D02*
X24548Y41798D01*
X24465Y41715D02*
X24548Y41798D01*
X24465Y41715D02*
X24548Y41798D01*
X24465Y41715D02*
X24548Y41798D01*
X24465Y41715D02*
X24548Y41798D01*
X24465Y41715D02*
X24548Y41798D01*
X24465Y41715D02*
X24548Y41798D01*
X24450Y41700D02*
X24465Y41715D01*
X24450Y41700D02*
X24465Y41715D01*
X24450Y41700D02*
X24465Y41715D01*
X24450Y41700D02*
X24465Y41715D01*
X24450Y41700D02*
X24465Y41715D01*
X24450Y41700D02*
X24465Y41715D01*
X24450Y41700D02*
X24465Y41715D01*
X24450Y41700D02*
X24465Y41715D01*
X24450Y41700D02*
X24465Y41715D01*
X24450Y41700D02*
X24465Y41715D01*
X24450Y41700D02*
X24465Y41715D01*
X24450Y41700D02*
X24465Y41715D01*
X24450Y41700D02*
X24465Y41715D01*
X24450Y41700D02*
X24465Y41715D01*
X24450Y41700D02*
X24465Y41715D01*
X24450Y41700D02*
X24465Y41715D01*
X24450Y41700D02*
X24465Y41715D01*
X24450Y41700D02*
X24465Y41715D01*
X24450Y41700D02*
X24465Y41715D01*
X24450Y41700D02*
X24465Y41715D01*
X24450Y41700D02*
X24465Y41715D01*
X24450Y41700D02*
X24465Y41715D01*
X24450Y41700D02*
X24465Y41715D01*
X24450Y41700D02*
X24465Y41715D01*
X25200Y41000D02*
X25300D01*
X25200D02*
X25300D01*
X25200D02*
X25300D01*
X25200D02*
X25300D01*
X25200D02*
X25300D01*
X25200D02*
X25300D01*
X25200D02*
X25300D01*
X25200D02*
X25300D01*
X25200D02*
X25300D01*
X25200D02*
X25300D01*
X25200D02*
X25300D01*
X25200D02*
X25300D01*
X25200D02*
X25300D01*
X25200D02*
X25300D01*
X25200D02*
X25300D01*
X24480D02*
X25200D01*
X24480D02*
X25200D01*
X24480D02*
X25200D01*
X25300D01*
X25200D02*
X25300D01*
X25200D02*
X25300D01*
X25200D02*
X25300D01*
X25200D02*
X25300D01*
X25200D02*
X25300D01*
X25200D02*
X25300D01*
X25200D02*
X25300D01*
X24480D02*
X25200D01*
X25300D01*
X24480D02*
X25200D01*
X24480D02*
X25200D01*
X24480D02*
X25200D01*
X24480D02*
X25200D01*
X24480D02*
X25200D01*
X24480D02*
X25200D01*
X24480D02*
X25200D01*
X24480D02*
X25200D01*
X24480D02*
X25200D01*
X24480D02*
X25200D01*
X24480D02*
X25200D01*
X24480D02*
X25200D01*
X24480D02*
X25200D01*
X24480D02*
X25200D01*
X24480D02*
X25200D01*
X24480D02*
X25200D01*
X24480D02*
X25200D01*
X24480D02*
X25200D01*
X24480D02*
X25200D01*
X24350D02*
X24480D01*
X25200D01*
X24350D02*
X24480D01*
X24350D02*
X24480D01*
X24350D02*
X24480D01*
X24350D02*
X24480D01*
X24350D02*
X24480D01*
X24350D02*
X24480D01*
X24350D02*
X24480D01*
X24350D02*
X24480D01*
X24350D02*
X24480D01*
X24350D02*
X24480D01*
X24350D02*
X24480D01*
X24350D02*
X24480D01*
X24350D02*
X24480D01*
X24350D02*
X24480D01*
X24350D02*
X24480D01*
X24350D02*
X24480D01*
X24350D02*
X24480D01*
X24350D02*
X24480D01*
X24350D02*
X24480D01*
X24350D02*
X24480D01*
X24350D02*
X24480D01*
X24350D02*
X24480D01*
X24350D02*
X24480D01*
X30350Y30540D02*
X30570D01*
X16200Y33740D02*
X17000D01*
X16200D02*
X17000D01*
X21150Y31000D02*
Y31200D01*
Y31000D02*
Y31200D01*
X24974Y28435D02*
X25650D01*
X24974D02*
X25650D01*
X17000Y33100D02*
X17650D01*
X17000D02*
X17650D01*
X18450Y27600D02*
X18950D01*
X17970Y31000D02*
X18865D01*
X17860Y31110D02*
X17970Y31000D01*
X24975Y29260D02*
X24980Y28400D01*
X26135Y31060D02*
X26925Y31850D01*
X16200Y33740D02*
Y34450D01*
Y33735D02*
Y33740D01*
X26000Y31600D02*
X26135Y31465D01*
X22500Y31600D02*
X26000D01*
X22450Y31650D02*
X22500Y31600D01*
X22450Y31650D02*
Y32275D01*
X22225Y32500D02*
X22450Y32275D01*
X21175Y32500D02*
X22225D01*
X20950Y32725D02*
X21175Y32500D01*
X20950Y32725D02*
Y34290D01*
X21600Y34940D01*
X26925Y31850D02*
X28875D01*
X29350Y31375D01*
X27850Y26860D02*
Y27455D01*
X19233Y26710D02*
Y27590D01*
X19248Y27605D01*
X19623D01*
X19628Y27600D01*
X19987D01*
X27850Y30320D02*
Y30855D01*
X27840Y30310D02*
X27850Y30320D01*
X26550Y30310D02*
X27840D01*
X19470Y27370D02*
X19503Y27403D01*
X19987D01*
X31050Y28580D02*
Y30060D01*
X30350Y27880D02*
X31050Y28580D01*
X30350Y27455D02*
Y27880D01*
X29350Y27455D02*
Y27960D01*
X28600Y28710D02*
X29350Y27960D01*
X28600Y28710D02*
Y29790D01*
X29350Y30540D01*
X30100Y28910D02*
Y29750D01*
X29850Y28660D02*
X30100Y28910D01*
X29850Y27455D02*
Y28660D01*
X17000Y33735D02*
Y33740D01*
X21135Y31000D02*
X21150D01*
X20450D02*
X20465D01*
X21000Y30388D02*
Y30400D01*
X17000Y33065D02*
Y33100D01*
X16200Y33050D02*
Y33065D01*
X19100Y30400D02*
X19110Y30388D01*
X21150Y31200D02*
X21950Y32000D01*
X20450Y29850D02*
X20700Y29600D01*
X21000D01*
X20800Y30600D02*
X21000Y30400D01*
X20800Y30600D02*
Y31300D01*
X20590Y31510D02*
X20800Y31300D01*
X18740Y31510D02*
X20590D01*
X18450Y31800D02*
X18740Y31510D01*
X18450Y31800D02*
Y32300D01*
X17650Y33100D02*
X18450Y32300D01*
X19200Y30750D02*
Y31250D01*
X16200Y32650D02*
Y33050D01*
Y32650D02*
X17500Y31350D01*
X19100D01*
X19200Y31250D01*
X19100Y30650D02*
X19200Y30750D01*
X19100Y30400D02*
Y30650D01*
X22935Y27800D02*
X22950D01*
X21535D02*
X22265D01*
X20293D02*
X20865D01*
X20290Y27797D02*
X20293Y27800D01*
X19987Y27797D02*
X20290D01*
X20865Y27000D02*
Y27201D01*
X20860Y27206D02*
X20865Y27201D01*
X19987Y27206D02*
X20860D01*
X24705Y40150D02*
X24720Y40135D01*
X24950Y37435D02*
X24985Y37400D01*
X24480Y41000D02*
Y41031D01*
X36900Y41480D02*
Y41500D01*
X27935Y42485D02*
X27950Y42500D01*
X17550Y36220D02*
X17795Y36465D01*
X17550Y36220D02*
Y36800D01*
Y35660D02*
Y36220D01*
X18050Y29450D02*
Y29600D01*
X18000D02*
X20300D01*
X28350Y27455D02*
Y27940D01*
Y27420D02*
Y27455D01*
X23150Y42400D02*
Y42833D01*
Y41800D02*
Y42400D01*
X23070Y41065D02*
Y41100D01*
Y40170D02*
Y41065D01*
X25200Y41700D02*
X25300D01*
X24480D02*
X25200D01*
X24450D02*
X24480D01*
X24050D02*
X24450D01*
X26485Y37400D02*
Y37615D01*
Y36600D02*
Y37400D01*
X24705Y39650D02*
X25150D01*
X24300D02*
X24705D01*
X27880Y29900D02*
X27890Y29890D01*
X27950D01*
X28100Y28190D02*
X28350Y27940D01*
X28100Y28190D02*
Y29740D01*
X27950Y29890D02*
X28100Y29740D01*
X28350Y30740D02*
Y30855D01*
X27880Y29900D02*
X28350Y30370D01*
X28350D02*
X28350Y30370D01*
X28340Y30820D02*
X28350Y30370D01*
X24940Y29900D02*
X27880D01*
X24935D02*
Y30155D01*
X18350Y31000D02*
X18850D01*
X24090D02*
X24935Y30155D01*
X23850Y30000D02*
X23950Y29900D01*
X22950Y27801D02*
X22950Y27800D01*
X18000Y29400D02*
Y29600D01*
Y29400D02*
X18050D01*
X18756Y29994D02*
X18850D01*
X19100Y30000D01*
X36450Y41950D02*
X36900Y41500D01*
X34750Y41950D02*
X36450D01*
X34400Y42300D02*
X34750Y41950D01*
X34400Y42300D02*
Y43800D01*
X33900Y44300D02*
X34400Y43800D01*
X33900Y44300D02*
Y45950D01*
Y42550D02*
Y43300D01*
X32900Y44300D02*
X33900Y43300D01*
X32900Y44300D02*
Y45950D01*
X33600Y35951D02*
Y36550D01*
X33300Y34050D02*
X34000D01*
X34400Y34450D01*
Y35065D01*
X31600Y35735D02*
Y36650D01*
X32356Y33597D02*
Y33894D01*
X31600Y34650D02*
X32356Y33894D01*
X31600Y34650D02*
Y35065D01*
X31350Y31150D02*
Y32065D01*
X32947Y31147D02*
Y32003D01*
X32800Y31000D02*
X32947Y31147D01*
X31500Y31000D02*
X32800D01*
X31350Y31150D02*
X31500Y31000D01*
X21649Y40149D02*
X22794D01*
X21400Y38700D02*
Y39900D01*
X21649Y40149D01*
X31050Y42300D02*
X31150D01*
X30950Y42400D02*
X31050Y42300D01*
X28724Y42400D02*
X30950D01*
X28124Y43000D02*
X28724Y42400D01*
X27350Y43000D02*
X28124D01*
X26650Y43700D02*
X27350Y43000D01*
X21770Y43700D02*
X26650D01*
X19010Y40940D02*
X21770Y43700D01*
X15790Y40940D02*
X19010D01*
X24548Y41798D02*
Y42597D01*
X24281Y41031D02*
X24480D01*
X24150Y40900D02*
X24281Y41031D01*
X24150Y39800D02*
Y40900D01*
X23950Y41600D02*
X24050Y41700D01*
X23350D02*
X23450Y41600D01*
X21950Y44750D02*
Y46000D01*
X22200Y44500D02*
X24950D01*
X21950Y44750D02*
X22200Y44500D01*
X17650Y44050D02*
Y44465D01*
X17150Y43850D02*
X17350D01*
X16900Y44100D02*
X17150Y43850D01*
X16900Y44100D02*
Y44300D01*
X18950Y43935D02*
Y46000D01*
X19450Y45000D02*
X19580Y44870D01*
Y43935D02*
Y44870D01*
X16065Y43350D02*
Y44665D01*
X16450Y45050D01*
X17280D01*
X17364Y45135D01*
X17650D01*
Y45350D01*
X17200Y45800D02*
X17650Y45350D01*
X16900Y45800D02*
X17200D01*
X31780Y42600D02*
X32900Y41480D01*
X28750Y42600D02*
X31780D01*
X28150Y43200D02*
X28750Y42600D01*
X27550Y43200D02*
X28150D01*
X26050Y44700D02*
X27550Y43200D01*
X26050Y44700D02*
Y45050D01*
X25700Y45400D02*
X26050Y45050D01*
X24950Y45400D02*
X25700D01*
X24550Y45000D02*
X24950Y45400D01*
X24450Y45000D02*
X24550D01*
X30900Y44750D02*
Y45950D01*
X29550Y43400D02*
X30900Y44750D01*
X27600Y43400D02*
X29550D01*
X26290Y44710D02*
X27600Y43400D01*
X26290Y44710D02*
Y45310D01*
X26000Y45600D02*
X26290Y45310D01*
X22950Y45600D02*
X26000D01*
X22450Y45100D02*
X22950Y45600D01*
X22450Y45000D02*
Y45100D01*
X25200Y32000D02*
X26750Y33550D01*
X24950Y32000D02*
X25200D01*
X15500Y40650D02*
X15790Y40940D01*
X15500Y39550D02*
Y40650D01*
X14950Y39000D02*
X15500Y39550D01*
X15750Y41100D02*
X18900D01*
X16700Y43350D02*
X16735D01*
X16450Y45300D02*
X16900D01*
X24720Y40135D02*
X25685D01*
X16735Y43350D02*
Y43665D01*
X16350Y44050D02*
X16735Y43665D01*
X16350Y44050D02*
Y44650D01*
X16500Y44800D01*
X16900D01*
X31285Y33600D02*
X31350Y33535D01*
Y32735D02*
Y33535D01*
X33144Y33894D02*
X33300Y34050D01*
X32150Y34350D02*
Y35065D01*
Y34350D02*
X32553Y33947D01*
Y33597D02*
Y33947D01*
X32600Y34150D02*
X32750Y34000D01*
Y33597D02*
Y34000D01*
X33144Y33597D02*
Y33894D01*
X32950Y33600D02*
Y34300D01*
X21724Y44200D02*
X25800D01*
X19024Y41500D02*
X21724Y44200D01*
X15950Y41500D02*
X19024D01*
X22700Y35450D02*
X26600D01*
X27750Y34300D01*
X21450Y34200D02*
X22700Y35450D01*
X21450Y33000D02*
Y34200D01*
X26900Y41300D02*
Y41815D01*
Y42485D02*
X27935D01*
X23050Y40150D02*
X23070Y40170D01*
X22795Y40150D02*
X23050D01*
X21750Y43950D02*
X24900D01*
X18900Y41100D02*
X21750Y43950D01*
X25150Y39650D02*
X25400Y39400D01*
Y38700D02*
Y39400D01*
Y38700D02*
X26485Y37615D01*
X24150Y39800D02*
X24300Y39650D01*
X22915Y36600D02*
Y37400D01*
X23585D02*
X24315D01*
X15950Y42450D02*
Y42500D01*
X24450Y33000D02*
X25050Y33600D01*
X24985Y36600D02*
X25815D01*
X19450Y33000D02*
Y33374D01*
X22026Y35950D01*
X24650D01*
X24985Y36285D01*
Y36600D01*
X23585D02*
X24315D01*
X18950Y32000D02*
Y33100D01*
X22000Y36150D01*
X23500D01*
X23585Y36235D01*
Y36600D01*
X25450Y33000D02*
Y33850D01*
X24190Y35110D02*
X25450Y33850D01*
X23390Y35110D02*
X24190D01*
X19580Y42730D02*
Y43265D01*
X18950Y42700D02*
Y43265D01*
X22860Y34890D02*
X22950Y34800D01*
X24200D01*
X25050Y33950D01*
Y33600D02*
Y33950D01*
X27750Y34300D02*
X29915D01*
X25800Y32000D02*
X25950D01*
X33865Y41515D02*
X33900Y41480D01*
X35900D02*
X35915Y41465D01*
X34900Y42480D02*
Y45950D01*
X35900Y42480D02*
Y45950D01*
X36900Y42480D02*
Y45950D01*
X29050Y37500D02*
X29450Y37900D01*
Y38100D01*
X30950Y39600D01*
X27950Y36500D02*
Y36800D01*
X28650Y37500D01*
X29050D01*
X30950Y39600D02*
X34050D01*
X28950Y38000D02*
X29050D01*
X30850Y39800D01*
X33250D01*
X30800Y40050D02*
X32400D01*
X29250Y38500D02*
X30800Y40050D01*
X28650Y38500D02*
X29250D01*
X27950Y37800D02*
X28650Y38500D01*
X27950Y37500D02*
Y37800D01*
X14950Y38000D02*
X16350D01*
X17550Y36800D01*
X15950Y38500D02*
X17530D01*
X17595Y38735D02*
X18950D01*
X17550Y38780D02*
X17595Y38735D01*
X17550Y38780D02*
Y39400D01*
X17795Y36465D02*
X18950D01*
X23450Y33865D02*
X23485Y33900D01*
X22950Y32000D02*
Y33515D01*
X22815Y33650D02*
X22950Y33515D01*
X25750Y40400D02*
X26001Y40651D01*
X25750Y40135D02*
Y40400D01*
X26450Y40701D02*
Y41600D01*
Y40701D02*
X26500Y40651D01*
X22200Y38650D02*
X22795D01*
X25750Y39050D02*
Y39465D01*
X26500Y39100D02*
Y39549D01*
X22700Y37400D02*
X22915D01*
X21400Y38700D02*
X22700Y37400D01*
X29188Y32013D02*
X29850Y31350D01*
X27938Y32013D02*
X29188D01*
X27600Y32350D02*
X27938Y32013D01*
X27600Y32350D02*
Y33350D01*
X26100Y34850D02*
X27600Y33350D01*
X26350Y34900D02*
Y35100D01*
Y34900D02*
X28078Y33172D01*
Y32200D02*
Y33172D01*
Y32200D02*
X29500D01*
X30350Y31350D01*
X18400Y29250D02*
Y29600D01*
X22815Y33650D02*
Y34500D01*
X32600Y34150D02*
Y34590D01*
X19750Y29800D02*
X20000Y30050D01*
Y30900D01*
X19850Y31050D02*
X20000Y30900D01*
X19600Y31050D02*
X19850D01*
X19110Y29797D02*
X19375D01*
X19350Y29800D02*
X19750D01*
X21000Y29994D02*
X21494D01*
X21000Y29797D02*
X21247D01*
X21444Y29600D01*
X22300D02*
X22350Y29550D01*
Y29500D02*
Y29550D01*
Y29500D02*
X22658Y29192D01*
Y28392D02*
Y29192D01*
Y28392D02*
X22950Y28100D01*
Y27800D02*
Y28100D01*
X22935Y27800D02*
Y27930D01*
X21444Y29600D02*
X22300D01*
X23000Y28900D02*
Y29550D01*
X22950Y29600D02*
X23000Y29550D01*
X21000Y29200D02*
Y29600D01*
Y29200D02*
X21300Y28900D01*
X20450Y29850D02*
Y31000D01*
X21300Y28900D02*
X22300D01*
X21300Y30200D02*
X21450Y30350D01*
X21550D01*
X21000Y30200D02*
X21300D01*
X29915Y34300D02*
X30615Y33600D01*
X29350Y30540D02*
Y31375D01*
X26135Y31000D02*
Y31465D01*
X29850Y30000D02*
X30100Y29750D01*
X29850Y30000D02*
Y31350D01*
X30350Y30540D02*
Y31350D01*
X30570Y30540D02*
X31050Y30060D01*
X28850Y30350D02*
Y30850D01*
X28750Y30250D02*
X28850Y30350D01*
X28700Y30250D02*
X28750D01*
X19350Y28000D02*
X20000D01*
X14700Y28900D02*
X15350Y28250D01*
X14700Y28900D02*
Y29650D01*
X15350Y27450D02*
Y28250D01*
Y28700D02*
Y29650D01*
X17600Y27400D02*
X17800Y27200D01*
X18400D01*
X16800Y27400D02*
X17600D01*
X23450Y33000D02*
Y33865D01*
X23485Y33900D02*
Y34500D01*
X18335Y37135D02*
X18950D01*
X18335Y38065D02*
X18950D01*
X32553Y31353D02*
Y32600D01*
X32750Y31350D02*
Y32600D01*
X32150Y35735D02*
Y36600D01*
X34400Y35735D02*
Y36600D01*
X32800Y35735D02*
Y36700D01*
X25660Y27770D02*
X25970D01*
X24880Y27750D02*
X25650D01*
X32470Y34710D02*
Y35060D01*
X32810D01*
X32800Y35065D02*
X33383D01*
X33610Y34310D02*
Y34760D01*
X33070Y34660D02*
X33340D01*
X33383Y35065D02*
X33600Y34849D01*
Y34900D02*
Y35370D01*
X32400Y27800D02*
Y28200D01*
X32700Y28500D01*
X33400Y28800D02*
X35200D01*
X35400Y29000D01*
X33400Y27800D02*
Y28800D01*
X35400Y29000D02*
X36000D01*
X32700Y29300D02*
X34400Y31000D01*
X36000D01*
X32700Y28500D02*
Y29300D01*
X36300Y32500D02*
X36600Y32200D01*
X34100Y32500D02*
X36300D01*
X33600Y32000D02*
X34100Y32500D01*
X33150Y32000D02*
X33600D01*
X36000Y28000D02*
X36600Y28600D01*
Y32200D01*
X31853Y32003D02*
X31856Y32000D01*
X31853Y32003D02*
X32356D01*
D26*
X15000Y41000D02*
Y41200D01*
Y41000D02*
Y41200D01*
Y41000D02*
Y41200D01*
Y41000D02*
Y41200D01*
Y41000D02*
Y41200D01*
Y41000D02*
Y41200D01*
Y41000D02*
Y41200D01*
Y41000D02*
Y41200D01*
Y41000D02*
Y41200D01*
Y41000D02*
Y41200D01*
Y41000D02*
Y41200D01*
Y41000D02*
Y41200D01*
Y41000D02*
Y41200D01*
Y41000D02*
Y41200D01*
Y41000D02*
Y41200D01*
Y41000D02*
Y41200D01*
Y41000D02*
Y41200D01*
Y41000D02*
Y41200D01*
Y41000D02*
Y41200D01*
Y41000D02*
Y41200D01*
Y41000D02*
Y41200D01*
Y41000D02*
Y41200D01*
Y41000D02*
Y41200D01*
Y41000D02*
Y41200D01*
Y41000D02*
Y41200D01*
Y41000D02*
Y41200D01*
Y41000D02*
Y41200D01*
Y41000D02*
Y41200D01*
Y41000D02*
Y41200D01*
Y41000D02*
Y41200D01*
Y41000D02*
Y41200D01*
Y41000D02*
Y41200D01*
Y41000D02*
Y41200D01*
Y41000D02*
Y41200D01*
Y41000D02*
Y41200D01*
Y41000D02*
Y41200D01*
X18400Y27800D02*
X18413Y27797D01*
X18400Y27400D02*
X18413Y27403D01*
X16450Y28050D02*
X17250D01*
X17900Y27400D01*
X18400D01*
X17150Y28400D02*
X17750Y27800D01*
X18400D01*
X16950Y28400D02*
X17150D01*
X15000Y40000D02*
X15350Y40350D01*
Y42055D01*
X15500Y42205D01*
Y42700D01*
X15750Y42950D01*
X16300D01*
X16700Y43350D01*
X14950Y42000D02*
X15350Y42400D01*
Y43050D02*
X15650Y43350D01*
X15350Y42400D02*
Y43050D01*
X15650Y43350D02*
X16065D01*
X14550Y41650D02*
Y43400D01*
Y41650D02*
X15000Y41200D01*
X14550Y43400D02*
X16450Y45300D01*
X15550Y41300D02*
X15750Y41100D01*
X15550Y41300D02*
Y42050D01*
X15950Y42450D01*
X16250Y28250D02*
X16450Y28050D01*
X16250Y28250D02*
Y28350D01*
X16300Y26750D02*
X16750D01*
D27*
X21500Y30000D02*
X23850D01*
X14800Y26900D02*
X15350Y27450D01*
X16300D01*
D28*
X33450Y34310D02*
X33840D01*
D29*
X14800Y26900D02*
D03*
D30*
Y27900D02*
D03*
D31*
X14950Y43000D02*
D03*
X28950Y35000D02*
D03*
D32*
X14950Y42000D02*
D03*
Y41000D02*
D03*
Y40000D02*
D03*
Y39000D02*
D03*
Y38000D02*
D03*
Y37000D02*
D03*
Y36000D02*
D03*
X15950Y35500D02*
D03*
Y36500D02*
D03*
Y37500D02*
D03*
Y38500D02*
D03*
Y39500D02*
D03*
Y40500D02*
D03*
Y41500D02*
D03*
Y42500D02*
D03*
X18950Y32000D02*
D03*
X19950D02*
D03*
X20950D02*
D03*
X21950D02*
D03*
X22950D02*
D03*
X23950D02*
D03*
X23450Y33000D02*
D03*
X22450D02*
D03*
X21450D02*
D03*
X20450D02*
D03*
X19450D02*
D03*
X28950Y36000D02*
D03*
Y37000D02*
D03*
Y38000D02*
D03*
Y39000D02*
D03*
Y40000D02*
D03*
Y41000D02*
D03*
Y42000D02*
D03*
X27950Y41500D02*
D03*
Y40500D02*
D03*
Y39500D02*
D03*
Y38500D02*
D03*
Y37500D02*
D03*
Y36500D02*
D03*
Y35500D02*
D03*
X24950Y46000D02*
D03*
X23950D02*
D03*
X22950D02*
D03*
X21950D02*
D03*
X20950D02*
D03*
X19950D02*
D03*
X18950D02*
D03*
X17950D02*
D03*
X18450Y45000D02*
D03*
X19450D02*
D03*
X20450D02*
D03*
X21450D02*
D03*
X22450D02*
D03*
X23450D02*
D03*
X24450D02*
D03*
X25450D02*
D03*
X24450Y33000D02*
D03*
X25450D02*
D03*
X27950Y42500D02*
D03*
X24950Y32000D02*
D03*
X14950Y35000D02*
D03*
X25950Y32000D02*
D03*
X28950Y43000D02*
D03*
X18450Y33000D02*
D03*
X30900Y45950D02*
D03*
X31900D02*
D03*
X32900D02*
D03*
X33900D02*
D03*
X34900D02*
D03*
X35900D02*
D03*
X36900D02*
D03*
X37900D02*
D03*
X38900D02*
D03*
X30900Y37950D02*
D03*
X31900D02*
D03*
X32900D02*
D03*
X33900D02*
D03*
X34900D02*
D03*
X35900D02*
D03*
X36900D02*
D03*
X37900D02*
D03*
D33*
X17950Y32000D02*
D03*
X25950Y46000D02*
D03*
X38900Y37950D02*
D03*
D34*
X37968Y30000D02*
D03*
X36000Y31969D02*
D03*
Y28031D02*
D03*
Y30984D02*
D03*
Y29016D02*
D03*
D35*
X33400Y27800D02*
D03*
X32900Y41480D02*
D03*
D36*
X32400Y27800D02*
D03*
X36900Y42480D02*
D03*
Y41480D02*
D03*
X35900Y42480D02*
D03*
Y41480D02*
D03*
X34900Y42480D02*
D03*
Y41480D02*
D03*
X33900Y42480D02*
D03*
Y41480D02*
D03*
X32900Y42480D02*
D03*
D37*
X18950Y27600D02*
D03*
X17860Y31110D02*
D03*
X21600Y34940D02*
D03*
X27850Y26860D02*
D03*
X19233Y26710D02*
D03*
X26550Y30310D02*
D03*
X19470Y27370D02*
D03*
X25540Y30550D02*
D03*
X25000D02*
D03*
X24990Y31050D02*
D03*
X24090Y31000D02*
D03*
X16300Y28800D02*
D03*
X25650Y27000D02*
D03*
X22800D02*
D03*
X24000D02*
D03*
X24600D02*
D03*
X23400D02*
D03*
X22200D02*
D03*
X18100Y26750D02*
D03*
X17750D02*
D03*
Y28450D02*
D03*
X17800Y28150D02*
D03*
X20000Y29350D02*
D03*
X19100Y29200D02*
D03*
X20100Y28350D02*
D03*
X20000Y28800D02*
D03*
X18400Y30500D02*
D03*
X16600Y30550D02*
D03*
X16000D02*
D03*
X37300Y30700D02*
D03*
X31800Y31400D02*
D03*
X32200D02*
D03*
X32600D02*
D03*
X26481Y38810D02*
D03*
X22100Y38550D02*
D03*
X21750Y38900D02*
D03*
Y39600D02*
D03*
X22150Y39850D02*
D03*
X31150Y42300D02*
D03*
X24950Y44500D02*
D03*
X26750Y33550D02*
D03*
X26467Y38367D02*
D03*
X38500Y30700D02*
D03*
X38600Y29300D02*
D03*
X37300D02*
D03*
X32600Y34589D02*
D03*
X32950Y34300D02*
D03*
X25800Y44200D02*
D03*
X26900Y41300D02*
D03*
X25900Y38850D02*
D03*
X26450Y41600D02*
D03*
X24900Y43950D02*
D03*
X23390Y35110D02*
D03*
X19580Y42730D02*
D03*
X18950Y42700D02*
D03*
X22860Y34890D02*
D03*
X19000Y34750D02*
D03*
X18340Y34760D02*
D03*
Y35740D02*
D03*
X19000Y35750D02*
D03*
X18340Y37100D02*
D03*
Y37640D02*
D03*
Y38060D02*
D03*
X17590Y37640D02*
D03*
Y38060D02*
D03*
X16860D02*
D03*
Y36540D02*
D03*
Y35740D02*
D03*
Y34760D02*
D03*
X18340Y39460D02*
D03*
Y40060D02*
D03*
X16860D02*
D03*
Y39260D02*
D03*
X17750Y42750D02*
D03*
X18250D02*
D03*
Y43250D02*
D03*
Y43750D02*
D03*
X17750D02*
D03*
Y43250D02*
D03*
X31300Y36900D02*
D03*
X31800D02*
D03*
X32300D02*
D03*
X32800D02*
D03*
X33300D02*
D03*
X33800D02*
D03*
X34300D02*
D03*
X34800D02*
D03*
Y36400D02*
D03*
X34300D02*
D03*
X32800D02*
D03*
X32300D02*
D03*
X31800D02*
D03*
X31300D02*
D03*
X32650Y32900D02*
D03*
X32850Y32700D02*
D03*
X26100Y34850D02*
D03*
X26350Y35100D02*
D03*
X19550Y30200D02*
D03*
Y30500D02*
D03*
X21550Y30350D02*
D03*
X21900D02*
D03*
X28850Y33900D02*
D03*
X29350D02*
D03*
X29850D02*
D03*
X29100Y33300D02*
D03*
X29600D02*
D03*
X29500Y30100D02*
D03*
X29150Y28650D02*
D03*
X29500Y28350D02*
D03*
Y28650D02*
D03*
X30450Y30100D02*
D03*
X30750Y29350D02*
D03*
X30400Y28600D02*
D03*
X28600Y30200D02*
D03*
X28700Y31550D02*
D03*
X28250D02*
D03*
X28700Y26800D02*
D03*
X29000D02*
D03*
X28700Y28100D02*
D03*
X33840Y34309D02*
D03*
X33450D02*
D03*
X33600Y35369D02*
D03*
X31856Y32000D02*
D03*
X16200Y34450D02*
D03*
D38*
X38953Y28031D02*
D03*
Y31969D02*
D03*
X37968Y28031D02*
D03*
Y31969D02*
D03*
X36000Y30000D02*
D03*
M02*
