M48
;Layer_Color=9474304
;FILE_FORMAT=2:4
INCH,LZ
;TYPE=PLATED
T1F00S00C0.0080
T2F00S00C0.0300
T3F00S00C0.0354
T4F00S00C0.0370
T5F00S00C0.0535
T6F00S00C0.0670
%
T01
X0373Y0293
X0386
X0385Y0307
X0373
X03045Y0301
X0295
X0286Y0302
X02915Y02865
X0295
Y02835
X0287Y0281
Y0268
X029
X02785Y02686
X02565Y027
X0246
X024
X0234
X0228
X0222
X01947Y02737
X01895Y0276
X019233Y02671
X0181Y02675
X01775
X0178Y02815
X01775Y02845
X0163Y0288
X0166Y03055
X016
X01786Y03111
X0184Y0305
X01955
Y0302
X02Y02935
Y0288
X0201Y02835
X0191Y0292
X02155Y03035
X0219
X02409Y031
X02499Y03105
X025Y03055
X02554
X02655Y03031
X03075Y02935
X0304Y0286
X0287Y03155
X02825
X0291Y0333
X0296
X02935Y0339
X02885
X02985
X02675Y03355
X0261Y03485
X02635Y0351
X02339Y03511
X02286Y03489
X0216Y03494
X019Y03475
X01834Y03476
Y03574
X019Y03575
X01834Y0371
Y03764
Y03806
X01759
Y03764
X01686Y03806
Y03926
Y04006
X01834
Y03946
X01825Y04275
X01775
Y04325
X01825
Y04375
X01775
X01895Y0427
X01958Y04273
X02175Y0396
X02215Y03985
X0221Y03855
X02175Y0389
X0259Y03885
X026481Y03881
X026467Y038367
X02645Y0416
X0269Y0413
X0258Y0442
X02495Y0445
X0249Y04395
X03115Y0423
X01686Y03654
Y03574
Y03476
X0162Y03445
X0326Y034589
X03295Y0343
X03345Y034309
X03384
X0336Y035369
X0338Y0369
X0333
X0328
X0323
X0318
X0313
Y0364
X0318
X0323
X0328
X0343
Y0369
X0348
Y0364
X03265Y0329
X03285Y0327
X0326Y0314
X0322
X0318
X031856Y032
T02
X0148Y0269
Y0279
T03
X0324Y0278
X0334
X0339Y04148
X0349
X0359
X0369
Y04248
X0359
X0349
X0339
X0329
Y04148
T04
X01495Y035
Y036
Y037
Y038
Y039
Y04
Y041
Y042
Y043
X01595Y0425
Y0415
Y0405
Y0395
Y0385
Y0375
Y0365
Y0355
X01845Y033
X01945
X02045
X02145
X02245
X02345
X02445
X02545
X02495Y032
X02395
X02295
X02195
X02095
X01995
X01895
X01795
X02595
X02795Y0355
Y0365
Y0375
Y0385
Y0395
Y0405
Y0415
Y0425
X02895Y042
Y041
Y04
Y039
Y038
Y037
Y036
Y035
X0309Y03795
X02895Y043
X0309Y04595
X02595Y046
X02495
X02395
X02295
X02195
X02095
X01995
X01895
X01795
X01845Y045
X01945
X02045
X02145
X02245
X02345
X02445
X02545
X0319Y04595
X0329
X0339
X0349
X0359
X0369
X0379
X0389
Y03795
X0379
X0369
X0359
X0349
X0339
X0329
X0319
T05
X037968Y028031
X038953
X036Y03
X037968Y031969
X038953
T06
X036Y028031
Y029016
Y030984
X037968Y03
X036Y031969
M30
