%FSLAX24Y24*%
%MOIN*%
G70*
G01*
G75*
G04 Layer_Physical_Order=3*
G04 Layer_Color=128*
%ADD10O,0.0827X0.0236*%
%ADD11R,0.0394X0.0433*%
%ADD12R,0.0433X0.0394*%
%ADD13R,0.0400X0.0120*%
%ADD14O,0.0400X0.0120*%
%ADD15R,0.0256X0.0551*%
%ADD16O,0.0236X0.0866*%
%ADD17O,0.0728X0.0131*%
%ADD18R,0.0709X0.0630*%
%ADD19R,0.0459X0.0450*%
%ADD20O,0.0118X0.0610*%
%ADD21R,0.0787X0.2165*%
%ADD22R,0.0709X0.0185*%
%ADD23R,0.0433X0.0394*%
%ADD24R,0.0433X0.0315*%
%ADD25C,0.0100*%
%ADD26C,0.0070*%
%ADD27C,0.0200*%
%ADD28C,0.0250*%
%ADD29R,0.0600X0.0600*%
%ADD30C,0.0600*%
%ADD31R,0.0580X0.0580*%
%ADD32C,0.0580*%
%ADD33R,0.0580X0.0580*%
%ADD34C,0.0840*%
%ADD35R,0.0591X0.0591*%
%ADD36C,0.0591*%
%ADD37C,0.0250*%
%ADD38C,0.0705*%
%ADD39C,0.0400*%
%ADD40C,0.0540*%
G04:AMPARAMS|DCode=41|XSize=70mil|YSize=70mil|CornerRadius=0mil|HoleSize=0mil|Usage=FLASHONLY|Rotation=0.000|XOffset=0mil|YOffset=0mil|HoleType=Round|Shape=Relief|Width=8mil|Gap=10mil|Entries=4|*
%AMTHD41*
7,0,0,0.0700,0.0500,0.0080,45*
%
%ADD41THD41*%
G04:AMPARAMS|DCode=42|XSize=77mil|YSize=77mil|CornerRadius=0mil|HoleSize=0mil|Usage=FLASHONLY|Rotation=0.000|XOffset=0mil|YOffset=0mil|HoleType=Round|Shape=Relief|Width=8mil|Gap=10mil|Entries=4|*
%AMTHD42*
7,0,0,0.0770,0.0570,0.0080,45*
%
%ADD42THD42*%
%ADD43C,0.0610*%
G04:AMPARAMS|DCode=44|XSize=107mil|YSize=107mil|CornerRadius=0mil|HoleSize=0mil|Usage=FLASHONLY|Rotation=0.000|XOffset=0mil|YOffset=0mil|HoleType=Round|Shape=Relief|Width=8mil|Gap=10mil|Entries=4|*
%AMTHD44*
7,0,0,0.1070,0.0870,0.0080,45*
%
%ADD44THD44*%
%ADD45C,0.0910*%
%ADD46C,0.0594*%
%ADD47C,0.0320*%
G04:AMPARAMS|DCode=48|XSize=48mil|YSize=48mil|CornerRadius=0mil|HoleSize=0mil|Usage=FLASHONLY|Rotation=0.000|XOffset=0mil|YOffset=0mil|HoleType=Round|Shape=Relief|Width=8mil|Gap=10mil|Entries=4|*
%AMTHD48*
7,0,0,0.0480,0.0280,0.0080,45*
%
%ADD48THD48*%
%ADD49C,0.0775*%
D39*
X14000Y26000D02*
X40000D01*
Y47000D01*
X30500D02*
X40000D01*
X30000Y46500D02*
X30500Y47000D01*
X30000Y45000D02*
Y46500D01*
X29000Y44000D02*
X30000Y45000D01*
X28000Y44000D02*
X29000D01*
X27000Y45000D02*
X28000Y44000D01*
X27000Y45000D02*
Y46500D01*
X26500Y47000D02*
X27000Y46500D01*
X14000Y47000D02*
X26500D01*
X14000Y26000D02*
Y47000D01*
D40*
X14800Y26900D02*
D03*
Y27900D02*
D03*
D42*
X22950Y32000D02*
D03*
X17950Y46000D02*
D03*
X14950Y35000D02*
D03*
X25950Y32000D02*
D03*
X28950Y43000D02*
D03*
X30900Y37950D02*
D03*
D43*
X14950Y43000D02*
D03*
Y42000D02*
D03*
Y41000D02*
D03*
Y40000D02*
D03*
Y39000D02*
D03*
Y38000D02*
D03*
Y37000D02*
D03*
Y36000D02*
D03*
X15950Y35500D02*
D03*
Y36500D02*
D03*
Y37500D02*
D03*
Y38500D02*
D03*
Y39500D02*
D03*
Y40500D02*
D03*
Y41500D02*
D03*
Y42500D02*
D03*
X17950Y32000D02*
D03*
X18950D02*
D03*
X19950D02*
D03*
X20950D02*
D03*
X21950D02*
D03*
X23950D02*
D03*
X23450Y33000D02*
D03*
X22450D02*
D03*
X21450D02*
D03*
X20450D02*
D03*
X19450D02*
D03*
X28950Y35000D02*
D03*
Y36000D02*
D03*
Y37000D02*
D03*
Y38000D02*
D03*
Y39000D02*
D03*
Y40000D02*
D03*
Y41000D02*
D03*
Y42000D02*
D03*
X27950Y41500D02*
D03*
Y40500D02*
D03*
Y39500D02*
D03*
Y38500D02*
D03*
Y37500D02*
D03*
Y36500D02*
D03*
Y35500D02*
D03*
X25950Y46000D02*
D03*
X24950D02*
D03*
X23950D02*
D03*
X22950D02*
D03*
X21950D02*
D03*
X20950D02*
D03*
X19950D02*
D03*
X18950D02*
D03*
X18450Y45000D02*
D03*
X19450D02*
D03*
X20450D02*
D03*
X21450D02*
D03*
X22450D02*
D03*
X23450D02*
D03*
X24450D02*
D03*
X25450D02*
D03*
X24450Y33000D02*
D03*
X25450D02*
D03*
X27950Y42500D02*
D03*
X24950Y32000D02*
D03*
X18450Y33000D02*
D03*
X30900Y45950D02*
D03*
X31900D02*
D03*
X32900D02*
D03*
X33900D02*
D03*
X34900D02*
D03*
X35900D02*
D03*
X36900D02*
D03*
X37900D02*
D03*
X38900D02*
D03*
X31900Y37950D02*
D03*
X32900D02*
D03*
X33900D02*
D03*
X34900D02*
D03*
X35900D02*
D03*
X36900D02*
D03*
X37900D02*
D03*
X38900D02*
D03*
D45*
X37968Y30000D02*
D03*
X36000Y31969D02*
D03*
Y28031D02*
D03*
Y30984D02*
D03*
Y29016D02*
D03*
D46*
X33400Y27800D02*
D03*
X32400D02*
D03*
X36900Y42480D02*
D03*
Y41480D02*
D03*
X35900Y42480D02*
D03*
Y41480D02*
D03*
X34900Y42480D02*
D03*
Y41480D02*
D03*
X33900Y42480D02*
D03*
Y41480D02*
D03*
X32900Y42480D02*
D03*
Y41480D02*
D03*
D47*
X18950Y27600D02*
D03*
X17860Y31110D02*
D03*
X21600Y34940D02*
D03*
X27850Y26860D02*
D03*
X19233Y26710D02*
D03*
X26550Y30310D02*
D03*
X19470Y27370D02*
D03*
X25540Y30550D02*
D03*
X25000D02*
D03*
X24990Y31050D02*
D03*
X24090Y31000D02*
D03*
X16300Y28800D02*
D03*
X25650Y27000D02*
D03*
X22800D02*
D03*
X24000D02*
D03*
X24600D02*
D03*
X23400D02*
D03*
X22200D02*
D03*
X18100Y26750D02*
D03*
X17750D02*
D03*
Y28450D02*
D03*
X17800Y28150D02*
D03*
X18400Y30500D02*
D03*
X16600Y30550D02*
D03*
X16000D02*
D03*
X37300Y30700D02*
D03*
X31800Y31400D02*
D03*
X32200D02*
D03*
X32600D02*
D03*
X26481Y38810D02*
D03*
X22100Y38550D02*
D03*
X21750Y38900D02*
D03*
Y39600D02*
D03*
X22150Y39850D02*
D03*
X31150Y42300D02*
D03*
X24950Y44500D02*
D03*
X26750Y33550D02*
D03*
X26467Y38367D02*
D03*
X38500Y30700D02*
D03*
X38600Y29300D02*
D03*
X37300D02*
D03*
X32950Y34300D02*
D03*
X25800Y44200D02*
D03*
X26900Y41300D02*
D03*
X25900Y38850D02*
D03*
X26450Y41600D02*
D03*
X24900Y43950D02*
D03*
X23390Y35110D02*
D03*
X19580Y42730D02*
D03*
X18950Y42700D02*
D03*
X22860Y34890D02*
D03*
X19000Y34750D02*
D03*
X18340Y34760D02*
D03*
Y35740D02*
D03*
X19000Y35750D02*
D03*
X18340Y37100D02*
D03*
Y37640D02*
D03*
Y38060D02*
D03*
X17590Y37640D02*
D03*
Y38060D02*
D03*
X16860D02*
D03*
Y36540D02*
D03*
Y35740D02*
D03*
Y34760D02*
D03*
X18340Y39460D02*
D03*
Y40060D02*
D03*
X16860D02*
D03*
Y39260D02*
D03*
X17750Y42750D02*
D03*
X18250D02*
D03*
Y43250D02*
D03*
Y43750D02*
D03*
X17750D02*
D03*
Y43250D02*
D03*
X31300Y36900D02*
D03*
X31800D02*
D03*
X32300D02*
D03*
X32800D02*
D03*
X33300D02*
D03*
X33800D02*
D03*
X34300D02*
D03*
X34800D02*
D03*
Y36400D02*
D03*
X34300D02*
D03*
X32800D02*
D03*
X32300D02*
D03*
X31800D02*
D03*
X31300D02*
D03*
X32650Y32900D02*
D03*
X32850Y32700D02*
D03*
X26100Y34850D02*
D03*
X26350Y35100D02*
D03*
X21550Y30350D02*
D03*
X21900D02*
D03*
X28850Y33900D02*
D03*
X29350D02*
D03*
X29850D02*
D03*
X29100Y33300D02*
D03*
X29600D02*
D03*
X29500Y30100D02*
D03*
X29150Y28650D02*
D03*
X29500Y28350D02*
D03*
Y28650D02*
D03*
X31856Y32000D02*
D03*
X16200Y34450D02*
D03*
D48*
X20000Y29350D02*
D03*
X19100Y29200D02*
D03*
X20100Y28350D02*
D03*
X20000Y28800D02*
D03*
X32600Y34589D02*
D03*
X19550Y30200D02*
D03*
Y30500D02*
D03*
X30450Y30100D02*
D03*
X30750Y29350D02*
D03*
X30400Y28600D02*
D03*
X28600Y30200D02*
D03*
X28700Y31550D02*
D03*
X28250D02*
D03*
X28700Y26800D02*
D03*
X29000D02*
D03*
X28700Y28100D02*
D03*
X33840Y34309D02*
D03*
X33450D02*
D03*
X33600Y35369D02*
D03*
D49*
X38953Y28031D02*
D03*
Y31969D02*
D03*
X37968Y28031D02*
D03*
Y31969D02*
D03*
X36000Y30000D02*
D03*
M02*
